<svg width="113" height="96" viewBox="0 0 113 96" fill="none" xmlns="http://www.w3.org/2000/svg">
<g clip-path="url(#clip0)">
<path d="M90.1177 30.7281V22.3108H97.6169V37.912L90.1177 30.7281Z" fill="url(#paint0_linear)"/>
<path d="M91.0076 31.3112V23.9588H96.6002V37.9119L91.0076 31.3112Z" fill="#6C63FF"/>
<path d="M103.718 13.9443C107.579 13.9443 110.709 10.8227 110.709 6.97214C110.709 3.12153 107.579 0 103.718 0C99.8572 0 96.7273 3.12153 96.7273 6.97214C96.7273 10.8227 99.8572 13.9443 103.718 13.9443Z" fill="url(#paint1_linear)"/>
<path d="M103.718 12.5499C106.807 12.5499 109.311 10.0526 109.311 6.97215C109.311 3.89167 106.807 1.39444 103.718 1.39444C100.629 1.39444 98.1255 3.89167 98.1255 6.97215C98.1255 10.0526 100.629 12.5499 103.718 12.5499Z" fill="#FF9800"/>
<path d="M43.9136 38.7233C44.9456 37.546 45.7122 36.1615 46.1615 34.6633C46.6108 33.1651 46.7324 31.5882 46.518 30.0391C46.3036 28.49 45.7583 27.0049 44.9189 25.6841C44.0795 24.3633 42.9655 23.2376 41.6524 22.3831C42.3312 21.3349 42.6914 20.1132 42.6895 18.8654C42.6895 15.3362 39.8843 12.4751 36.4245 12.4751C33.5748 12.4751 31.1725 14.4184 30.4137 17.0754C28.7778 14.3183 25.8099 12.4751 22.42 12.4751C17.2634 12.4751 13.0841 16.7382 13.0841 21.9978C13.083 23.1182 13.2765 24.2303 13.6561 25.2848C13.4667 25.2696 13.2748 25.2556 13.0841 25.2556C8.94559 25.2556 5.58492 28.6783 5.58492 32.8996C5.58492 33.1595 5.59763 33.4168 5.62305 33.6716C3.93948 34.4256 2.51179 35.6512 1.51352 37.1993C0.515254 38.7473 -0.0105896 40.5513 -8.99206e-05 42.3919C-8.99206e-05 47.6337 4.16643 51.8841 9.3053 51.8841C9.84533 51.8835 10.3842 51.8351 10.9157 51.7396C10.8878 52.0553 10.8712 52.3735 10.8712 52.6992C10.8712 58.5812 15.5462 63.3476 21.3129 63.3476C23.4452 63.3471 25.524 62.6823 27.2589 61.4461C28.655 62.6695 30.4492 63.3453 32.3076 63.3476C36.6152 63.3476 40.108 59.7855 40.108 55.3905C40.108 55.2003 40.0928 55.0102 40.0801 54.8264H40.108C44.7219 54.8264 48.4614 51.012 48.4614 46.3064C48.4686 44.749 48.0486 43.2193 47.2471 41.8828C46.4455 40.5462 45.2928 39.4537 43.9136 38.7233V38.7233Z" fill="url(#paint2_linear)"/>
<path d="M42.7074 38.6726C43.6763 37.5675 44.396 36.2678 44.8179 34.8615C45.2398 33.4551 45.354 31.9747 45.1527 30.5205C44.9515 29.0663 44.4395 27.6722 43.6514 26.4323C42.8634 25.1925 41.8176 24.1358 40.5847 23.3339C41.2211 22.3518 41.5592 21.2072 41.5583 20.0379C41.5583 16.7255 38.926 14.0394 35.6772 14.0394C33.008 14.0394 30.748 15.8635 30.035 18.357C29.2702 17.0484 28.176 15.9616 26.8606 15.2043C25.5453 14.447 24.0545 14.0455 22.5357 14.0394C17.6956 14.0394 13.7718 18.0414 13.7718 22.9776C13.7705 24.0293 13.952 25.0733 14.3082 26.0631C14.1303 26.0492 13.9523 26.0352 13.7718 26.0352C9.88241 26.034 6.73655 29.245 6.73655 33.2127C6.73655 33.4574 6.74926 33.6983 6.77214 33.9366C5.19101 34.6436 3.84998 35.7937 2.91215 37.2469C1.97432 38.7001 1.48011 40.3937 1.48964 42.1219C1.48964 47.0429 5.40067 51.031 10.2243 51.031C10.7311 51.0303 11.2368 50.9849 11.7356 50.8954C11.7102 51.192 11.6937 51.4924 11.6937 51.7954C11.6937 57.3161 16.0813 61.7922 21.4948 61.7922C23.4951 61.7947 25.4463 61.1743 27.076 60.0174C28.3877 61.162 30.0715 61.7927 31.8144 61.7922C35.8577 61.7922 39.137 58.4481 39.137 54.3231C39.137 54.1444 39.123 53.9694 39.1103 53.7932H39.137C43.4675 53.7932 46.9781 50.2121 46.9781 45.7956C46.9857 44.3326 46.5917 42.8956 45.8389 41.64C45.0861 40.3844 44.0031 39.3582 42.7074 38.6726Z" fill="#00897B"/>
<path d="M27.245 27.2636H24.9685V83.7392H27.245V27.2636Z" fill="url(#paint3_linear)"/>
<path d="M26.7607 28.0572H25.6155V83.7392H26.7607V28.0572Z" fill="#795548"/>
<path d="M34.9084 34.3449L25.5115 44.4655L26.3518 45.2415L35.7487 35.1209L34.9084 34.3449Z" fill="#795548"/>
<path d="M16.5297 45.8805L15.8469 46.7975L25.5899 54.0139L26.2727 53.097L16.5297 45.8805Z" fill="#795548"/>
<path d="M29.6155 45.002C28.0782 43.3705 27.2211 41.2168 27.2183 38.978C27.2183 35.7531 28.9761 32.9262 31.6174 31.3328C31.0231 30.4679 30.705 29.444 30.7048 28.3956C30.7048 25.4432 33.1884 23.0499 36.2529 23.0499C38.7772 23.0499 40.9037 24.675 41.5761 26.8985C42.3326 25.7116 43.379 24.7358 44.6171 24.0626C45.8552 23.3895 47.2445 23.041 48.6546 23.0499C53.2215 23.0499 56.9164 26.6171 56.9164 31.0171C56.9164 31.9569 56.7441 32.8887 56.408 33.7667C56.5758 33.754 56.7436 33.7426 56.9164 33.7426C60.5822 33.7426 63.5526 36.605 63.5526 40.1367C63.5523 40.3522 63.5409 40.5676 63.5183 40.7819C66.4493 41.9989 68.5021 44.8067 68.5021 48.0773C68.5021 52.4634 64.816 56.0179 60.2606 56.0179C59.7825 56.0154 59.3055 55.973 58.8345 55.8912C58.8586 56.1561 58.8739 56.4223 58.8739 56.6936C58.8739 61.6147 54.734 65.604 49.6269 65.604C47.755 65.6074 45.9245 65.0549 44.3686 64.0169C43.108 65.0476 41.5271 65.6088 39.897 65.604C36.0839 65.604 32.9888 62.6237 32.9888 58.9475C32.9888 58.7878 33.0016 58.6319 33.013 58.4747H32.9888C28.9037 58.4747 25.5913 55.2827 25.5913 51.3466C25.5913 48.5806 27.2297 46.1834 29.6155 45.002Z" fill="url(#paint4_linear)"/>
<path d="M30.3668 44.9728C28.8977 43.4101 28.0797 41.3484 28.0789 39.2062C28.0789 36.1195 29.7618 33.4143 32.2899 31.8893C31.7181 31.0607 31.4118 30.0785 31.4116 29.0726C31.4116 26.2469 33.7898 23.955 36.7221 23.955C39.1371 23.955 41.1708 25.5104 41.8178 27.6388C42.5417 26.5045 43.5424 25.5719 44.7261 24.9283C45.9098 24.2847 47.2379 23.9512 48.5861 23.9588C52.9573 23.9588 56.4997 27.3726 56.4997 31.5838C56.5006 32.4835 56.3364 33.3759 56.0154 34.2167C56.1756 34.2053 56.3357 34.1926 56.4997 34.1926C60.0078 34.1926 62.855 36.9333 62.855 40.3129C62.8551 40.5191 62.8444 40.7252 62.8232 40.9303C65.6284 42.0952 67.5935 44.7827 67.5935 47.9125C67.5935 52.1098 64.0625 55.5185 59.7053 55.5185C59.2481 55.5159 58.7919 55.4752 58.3415 55.3968C58.3643 55.6503 58.3783 55.9039 58.3783 56.165C58.3783 60.8756 54.4152 64.6938 49.528 64.6938C47.7338 64.6977 45.9792 64.1681 44.4882 63.1727C43.2821 64.16 41.769 64.6978 40.2086 64.6938C36.5569 64.6938 33.5991 61.8416 33.5991 58.3226C33.5991 58.1705 33.6118 58.0209 33.6233 57.87H33.5991C29.6881 57.87 26.5181 54.815 26.5181 51.0475C26.5117 48.3981 28.0789 46.1036 30.3668 44.9728Z" fill="#009688"/>
<path d="M46.6223 36.0523H44.0332V83.4527H46.6223V36.0523Z" fill="url(#paint5_linear)"/>
<path d="M46.0858 36.0523H44.6545V83.4527H46.0858V36.0523Z" fill="#795548"/>
<path d="M37.5386 41.1154L36.5166 42.1147L45.0034 50.7489L46.0254 49.7497L37.5386 41.1154Z" fill="#795548"/>
<path d="M53.9018 50.926L45.104 57.0836L45.9261 58.252L54.7239 52.0944L53.9018 50.926Z" fill="#795548"/>
<path d="M103.363 44.3681H39.5298C38.0719 44.3681 36.8911 45.0223 36.8911 45.831V92.5672H106.006V45.831C106.006 45.0223 104.821 44.3681 103.363 44.3681Z" fill="url(#paint6_linear)"/>
<path d="M71.2452 17.6256L37.9448 42.2942V90.7848H104.745V44.0538L71.2452 17.6256Z" fill="white"/>
<path d="M71.3113 47.2724C75.4067 47.2724 78.7266 43.9613 78.7266 39.8768C78.7266 35.7924 75.4067 32.4813 71.3113 32.4813C67.2159 32.4813 63.896 35.7924 63.896 39.8768C63.896 43.9613 67.2159 47.2724 71.3113 47.2724Z" fill="url(#paint7_linear)"/>
<path d="M57.4084 54.1393H44.3V67.2127H57.4084V54.1393Z" fill="url(#paint8_linear)"/>
<path d="M98.0581 54.1393H84.9497V67.2127H98.0581V54.1393Z" fill="url(#paint9_linear)"/>
<path d="M31.5222 54.5982L29.7466 44.6927L71.3914 12.7717L112.615 45.3303L111.472 54.2179L71.385 24.0501L31.5222 54.5982Z" fill="url(#paint10_linear)"/>
<path d="M31.6036 52.6092L30.3821 45.7651L71.3812 13.8581L111.98 45.7677L110.751 52.6054L71.3748 21.6567L31.6036 52.6092Z" fill="#6C63FF"/>
<path d="M79.2565 68.9291H63.2349V90.7849H79.2565V68.9291Z" fill="url(#paint11_linear)"/>
<path d="M78.7925 69.3918H63.6975V90.7848H78.7925V69.3918Z" fill="#6C63FF"/>
<path d="M57.078 54.6007H44.8962V58.893H57.078V54.6007Z" fill="#6C63FF"/>
<path opacity="0.2" d="M57.078 58.893H44.8962V66.7499H57.078V58.893Z" fill="#6C63FF"/>
<path d="M97.5954 54.6007H85.4136V58.893H97.5954V54.6007Z" fill="#6C63FF"/>
<path opacity="0.2" d="M97.5954 58.893H85.4136V66.7499H97.5954V58.893Z" fill="#6C63FF"/>
<path d="M71.2451 46.546C72.1324 46.546 73.0111 46.3716 73.8308 46.0327C74.6506 45.6938 75.3953 45.1972 76.0225 44.5711C76.6497 43.945 77.147 43.2018 77.486 42.3839C77.825 41.566 77.999 40.6896 77.9982 39.8046H64.4919C64.4911 40.6896 64.6652 41.566 65.0042 42.3839C65.3432 43.2018 65.8405 43.945 66.4676 44.5711C67.0948 45.1972 67.8395 45.6938 68.6593 46.0327C69.479 46.3716 70.3577 46.546 71.2451 46.546V46.546Z" fill="#6C63FF"/>
<path opacity="0.2" d="M71.2451 46.4801C73.0361 46.4801 74.7538 45.7705 76.0202 44.5074C77.2867 43.2443 77.9982 41.5312 77.9982 39.745H64.4919C64.4919 41.5312 65.2034 43.2443 66.4699 44.5074C67.7363 45.7705 69.454 46.4801 71.2451 46.4801V46.4801Z" fill="black"/>
<path opacity="0.2" d="M71.2451 33.0758C69.4551 33.0758 67.7384 33.7845 66.4721 35.0462C65.2059 36.3079 64.4936 38.0194 64.4919 39.8046H77.9982C77.9965 38.0194 77.2843 36.3079 76.018 35.0462C74.7517 33.7845 73.035 33.0758 71.2451 33.0758V33.0758Z" fill="#6C63FF"/>
<path opacity="0.2" d="M71.2451 33.0758C69.4551 33.0758 67.7384 33.7845 66.4721 35.0462C65.2059 36.3079 64.4936 38.0194 64.4919 39.8046H77.9982C77.9965 38.0194 77.2843 36.3079 76.018 35.0462C74.7517 33.7845 73.035 33.0758 71.2451 33.0758V33.0758Z" fill="#6C63FF"/>
<path d="M75.2831 81.607C76.1606 81.607 76.872 80.8975 76.872 80.0224C76.872 79.1473 76.1606 78.4378 75.2831 78.4378C74.4057 78.4378 73.6943 79.1473 73.6943 80.0224C73.6943 80.8975 74.4057 81.607 75.2831 81.607Z" fill="url(#paint12_linear)"/>
<path d="M75.2833 81.2115C75.9418 81.2115 76.4756 80.6791 76.4756 80.0224C76.4756 79.3657 75.9418 78.8333 75.2833 78.8333C74.6249 78.8333 74.0911 79.3657 74.0911 80.0224C74.0911 80.6791 74.6249 81.2115 75.2833 81.2115Z" fill="#263238"/>
<path d="M80.7119 87.6816H61.2483V94.0199H80.7119V87.6816Z" fill="url(#paint13_linear)"/>
<path d="M80.314 88.209H61.6448V93.6231H80.314V88.209Z" fill="white"/>
<path d="M43.0291 73.0642C43.5045 72.5215 43.8577 71.8834 44.0646 71.1929C44.2716 70.5024 44.3276 69.7757 44.2288 69.0618C44.13 68.3478 43.8787 67.6634 43.4919 67.0546C43.1051 66.4459 42.5919 65.927 41.9868 65.5331C42.2997 65.05 42.4657 64.4868 42.4647 63.9117C42.4824 63.2097 42.2416 62.5256 41.7878 61.9886C41.3341 61.4516 40.6988 61.099 40.0021 60.9974C39.3054 60.8958 38.5955 61.0522 38.0066 61.4371C37.4177 61.8221 36.9906 62.4088 36.806 63.0865C36.4302 62.4432 35.8924 61.9091 35.2458 61.5371C34.5992 61.1651 33.8664 60.9681 33.1199 60.9657C30.743 60.9657 28.8161 62.9305 28.8161 65.3556C28.8147 65.874 28.9037 66.3888 29.0792 66.8768C28.9915 66.8704 28.9051 66.8628 28.8161 66.8628C26.9095 66.8628 25.3614 68.4398 25.3614 70.3857C25.3614 70.5061 25.3614 70.624 25.3792 70.7419C24.6028 71.0892 23.9443 71.654 23.4837 72.3676C23.0231 73.0813 22.7804 73.913 22.785 74.7616C22.785 77.1778 24.7055 79.1363 27.0748 79.1363C27.3237 79.1358 27.5721 79.1133 27.8171 79.0691C27.8044 79.2149 27.7967 79.362 27.7967 79.5116C27.7967 82.2231 29.9575 84.4212 32.6102 84.4212C33.5927 84.4214 34.5508 84.1156 35.3506 83.5465C35.9944 84.1098 36.8215 84.4207 37.6779 84.4212C39.6633 84.4212 41.2737 82.7733 41.2737 80.7539C41.2737 80.6664 41.2674 80.5802 41.261 80.494H41.2737C43.4002 80.494 45.1238 78.7357 45.1238 76.5642C45.128 75.8458 44.9351 75.1398 44.5659 74.5229C44.1966 73.9059 43.6652 73.4015 43.0291 73.0642V73.0642Z" fill="url(#paint14_linear)"/>
<path d="M42.4721 73.0414C42.9186 72.532 43.2501 71.9329 43.4445 71.2847C43.6388 70.6365 43.6914 69.9543 43.5986 69.284C43.5058 68.6138 43.2699 67.9713 42.9067 67.3999C42.5435 66.8284 42.0616 66.3414 41.4934 65.9717C41.7871 65.5184 41.9429 64.9901 41.9421 64.4505C41.9588 63.7915 41.7328 63.1492 41.3069 62.6451C40.8809 62.1409 40.2846 61.8099 39.6306 61.7145C38.9765 61.6192 38.3101 61.7661 37.7573 62.1275C37.2045 62.4889 36.8036 63.0397 36.6304 63.6759C36.2779 63.0729 35.7736 62.572 35.1675 62.223C34.5613 61.8739 33.8743 61.6887 33.1744 61.6857C30.9437 61.6857 29.135 63.5302 29.135 65.8056C29.1346 66.2904 29.2184 66.7717 29.3828 67.2279C29.3015 67.2279 29.2189 67.2152 29.135 67.2152C27.344 67.2152 25.8925 68.6959 25.8925 70.5226C25.8925 70.6354 25.8925 70.7469 25.909 70.856C25.1803 71.1819 24.5622 71.7119 24.1298 72.3817C23.6975 73.0514 23.4695 73.832 23.4737 74.6285C23.4737 76.8964 25.276 78.7357 27.5004 78.7357C27.7339 78.7356 27.967 78.7148 28.1969 78.6736C28.1855 78.8105 28.1779 78.9487 28.1779 79.0882C28.1779 81.6336 30.2001 83.6961 32.6952 83.6961C33.6176 83.6963 34.517 83.4091 35.2678 82.8747C35.8722 83.4036 36.6487 83.6955 37.4527 83.6961C39.3174 83.6961 40.8274 82.1546 40.8274 80.2531C40.8274 80.1707 40.821 80.0896 40.8147 80.0085H40.8274C42.8229 80.0085 44.4423 78.3605 44.4423 76.3221C44.4451 75.6481 44.2631 74.9861 43.9158 74.4078C43.5686 73.8296 43.0693 73.357 42.4721 73.0414V73.0414Z" fill="#00897B"/>
<path d="M35.3455 67.7831H34.2957V93.8158H35.3455V67.7831Z" fill="url(#paint15_linear)"/>
<path d="M35.1217 68.1482H34.5942V93.8158H35.1217V68.1482Z" fill="#795548"/>
<path d="M38.8792 71.0418L34.5474 75.7073L34.9344 76.0647L39.2662 71.3992L38.8792 71.0418Z" fill="#795548"/>
<path d="M30.4058 76.3665L30.0913 76.7888L34.5822 80.1151L34.8967 79.6928L30.4058 76.3665Z" fill="#795548"/>
<path d="M36.4398 75.9595C35.7307 75.2076 35.3357 74.2143 35.3353 73.1821C35.3399 72.4694 35.5297 71.7702 35.8862 71.1526C36.2426 70.5349 36.7535 70.02 37.369 69.658C37.0935 69.259 36.9459 68.786 36.9457 68.3016C36.9457 66.9401 38.0896 65.8372 39.5031 65.8372C40.049 65.831 40.5825 66.0001 41.0245 66.3198C41.4666 66.6394 41.7937 67.0925 41.9575 67.612C42.3061 67.0647 42.7883 66.6148 43.3591 66.3044C43.9298 65.9939 44.5702 65.8332 45.2203 65.8372C47.3251 65.8372 49.0334 67.4852 49.0334 69.5135C49.0337 69.9467 48.9544 70.3763 48.7995 70.7811C48.8771 70.7811 48.9546 70.7697 49.0334 70.7697C50.7227 70.7697 52.0929 72.0893 52.0929 73.717C52.0929 73.8165 52.0878 73.916 52.0776 74.0149C52.7511 74.286 53.3288 74.7503 53.7376 75.3489C54.1465 75.9476 54.3681 76.6537 54.3744 77.378C54.3744 79.4 52.6737 81.039 50.5752 81.039C50.355 81.0388 50.1352 81.0201 49.9181 80.9833C49.9295 81.11 49.9359 81.2279 49.9359 81.3534C49.9359 83.6213 48.0293 85.4606 45.6728 85.4606C44.8086 85.463 43.9634 85.2083 43.245 84.7292C42.6628 85.2028 41.9335 85.4596 41.1821 85.4556C39.423 85.4556 37.9981 84.0814 37.9981 82.3866C37.9981 82.313 37.9981 82.2408 38.0096 82.1685H37.9981C36.1144 82.1685 34.5879 80.6968 34.5879 78.8827C34.5923 78.2717 34.7681 77.674 35.0954 77.1574C35.4227 76.6408 35.8884 76.2259 36.4398 75.9595Z" fill="url(#paint16_linear)"/>
<path d="M36.7844 75.9456C36.1051 75.2247 35.727 74.2727 35.7269 73.2835C35.7307 72.6019 35.9116 71.933 36.2517 71.3418C36.5918 70.7507 37.0797 70.2575 37.6678 69.9103C37.404 69.5285 37.2626 69.0758 37.2623 68.6122C37.2623 67.309 38.3579 66.2531 39.7103 66.2531C40.2325 66.2478 40.7426 66.4099 41.1655 66.7154C41.5883 67.021 41.9016 67.4539 42.0593 67.9505C42.3931 67.4269 42.8548 66.9966 43.401 66.6997C43.9473 66.4028 44.5602 66.2491 45.1822 66.2531C47.1969 66.2531 48.8302 67.8262 48.8302 69.7683C48.8303 70.1829 48.7545 70.594 48.6064 70.9814C48.6802 70.9814 48.7539 70.97 48.8302 70.97C50.4469 70.97 51.7536 72.2377 51.7536 73.7918C51.7534 73.8871 51.7483 73.9823 51.7383 74.0771C52.383 74.3364 52.9361 74.7806 53.3275 75.3536C53.7189 75.9265 53.9311 76.6024 53.9373 77.2956C53.9373 79.2301 52.309 80.7995 50.3008 80.7995C50.0878 80.7996 49.8752 80.7818 49.6652 80.7462C49.6767 80.8628 49.683 80.9807 49.683 81.0999C49.683 83.2714 47.8565 85.0296 45.603 85.0296C44.7759 85.032 43.967 84.7884 43.2795 84.3299C42.7233 84.7844 42.0259 85.0318 41.3068 85.0296C39.6239 85.0296 38.2563 83.7151 38.2563 82.0925C38.2563 82.0228 38.2563 81.953 38.2677 81.8846H38.2563C36.4539 81.8846 34.9922 80.4762 34.9922 78.7395C34.9989 78.1532 35.1705 77.5806 35.4873 77.0867C35.8041 76.5928 36.2535 76.1974 36.7844 75.9456V75.9456Z" fill="#009688"/>
<path d="M44.2773 71.8333H43.0837V93.6827H44.2773V71.8333Z" fill="url(#paint17_linear)"/>
<path d="M44.0305 71.8333H43.3708V93.6827H44.0305V71.8333Z" fill="#795548"/>
<path d="M40.0905 74.168L39.6194 74.6286L43.5318 78.6089L44.0029 78.1484L40.0905 74.168Z" fill="#795548"/>
<path d="M47.6342 78.6884L43.5786 81.5268L43.9576 82.0654L48.0131 79.2269L47.6342 78.6884Z" fill="#795548"/>
<path d="M11.3403 63.8597L19.9276 72.7612L29.6435 63.8597" stroke="#37474F" stroke-miterlimit="10"/>
<path d="M8.62912 59.3519H2.86743V94.8465H8.62912V59.3519Z" fill="url(#paint18_linear)"/>
<path d="M8.17657 60.0276H3.3186V93.6067H8.17657V60.0276Z" fill="#F5F5F5"/>
<path d="M35.9709 60.8173H1.39819V67.0149H35.9709V60.8173Z" fill="url(#paint19_linear)"/>
<path d="M1.85059 61.493L1.85059 66.338H35.5195V61.493H1.85059Z" fill="#F5F5F5"/>
<path d="M5.80493 64.8738C6.36652 64.8738 6.82177 64.4198 6.82177 63.8597C6.82177 63.2996 6.36652 62.8456 5.80493 62.8456C5.24334 62.8456 4.78809 63.2996 4.78809 63.8597C4.78809 64.4198 5.24334 64.8738 5.80493 64.8738Z" fill="url(#paint20_linear)"/>
<path d="M33.0334 64.8738C33.595 64.8738 34.0503 64.4198 34.0503 63.8597C34.0503 63.2996 33.595 62.8456 33.0334 62.8456C32.4719 62.8456 32.0166 63.2996 32.0166 63.8597C32.0166 64.4198 32.4719 64.8738 33.0334 64.8738Z" fill="url(#paint21_linear)"/>
<path d="M5.805 64.6482C6.24163 64.6482 6.5956 64.2952 6.5956 63.8597C6.5956 63.4242 6.24163 63.0712 5.805 63.0712C5.36837 63.0712 5.0144 63.4242 5.0144 63.8597C5.0144 64.2952 5.36837 64.6482 5.805 64.6482Z" fill="#E6E6E6"/>
<path d="M33.0335 64.6482C33.4702 64.6482 33.8241 64.2952 33.8241 63.8597C33.8241 63.4242 33.4702 63.0712 33.0335 63.0712C32.5969 63.0712 32.2429 63.4242 32.2429 63.8597C32.2429 64.2952 32.5969 64.6482 33.0335 64.6482Z" fill="#E6E6E6"/>
<path d="M31.4522 72.1971H9.646V86.9578H31.4522V72.1971Z" fill="url(#paint22_linear)"/>
<path d="M31.282 72.367H9.81519V86.5648H31.282V72.367Z" fill="#6C63FF"/>
<path d="M27.4408 74.6196H12.3013V75.9722H27.4408V74.6196Z" fill="white"/>
<path d="M25.8024 77.2678H15.0696V78.6204H25.8024V77.2678Z" fill="white"/>
<path d="M26.7061 79.9159H13.7134V81.2685H26.7061V79.9159Z" fill="white"/>
<path d="M27.6097 82.5641H12.4702V83.9166H27.6097V82.5641Z" fill="white"/>
<path d="M93.5165 77.1334C93.0845 76.64 92.7637 76.0599 92.5758 75.4323C92.3878 74.8047 92.337 74.1442 92.4269 73.4953C92.5168 72.8465 92.7452 72.2244 93.0968 71.6711C93.4483 71.1178 93.9148 70.6462 94.4647 70.2881C94.1801 69.8488 94.0291 69.3368 94.03 68.8138C94.0129 68.1749 94.2314 67.552 94.6439 67.063C95.0565 66.574 95.6345 66.2528 96.2685 66.1604C96.9026 66.0679 97.5486 66.2105 98.0843 66.5612C98.62 66.9119 99.0081 67.4463 99.1752 68.0633C99.5168 67.4786 100.006 66.9931 100.593 66.6549C101.181 66.3167 101.847 66.1375 102.526 66.1352C104.687 66.1352 106.438 67.9226 106.438 70.1258C106.439 70.5954 106.358 71.0616 106.199 71.5037C106.278 71.5037 106.358 71.4911 106.438 71.4911C108.173 71.4911 109.579 72.9248 109.579 74.6945C109.579 74.8035 109.579 74.9112 109.562 75.0177C110.268 75.3334 110.867 75.8469 111.286 76.4957C111.705 77.1445 111.926 77.9007 111.921 78.6724C111.921 80.8692 110.175 82.6503 108.022 82.6503C107.795 82.6499 107.57 82.6296 107.347 82.5895C107.358 82.7162 107.366 82.8557 107.366 82.9913C107.366 85.4569 105.407 87.4547 102.99 87.4547C102.096 87.4553 101.225 87.1774 100.497 86.6599C99.9113 87.1722 99.1587 87.4547 98.3795 87.4547C96.5746 87.4547 95.1104 85.9614 95.1104 84.1195C95.1104 84.0397 95.1104 83.9611 95.1218 83.8825H95.1104C93.1771 83.8825 91.6099 82.2839 91.6099 80.3115C91.607 79.6587 91.7831 79.0176 92.1191 78.4575C92.4552 77.8973 92.9384 77.4395 93.5165 77.1334V77.1334Z" fill="url(#paint23_linear)"/>
<path d="M94.0223 77.1131C93.6165 76.65 93.3151 76.1054 93.1384 75.5162C92.9617 74.9269 92.914 74.3066 92.9983 73.6973C93.0827 73.0881 93.2972 72.5039 93.6273 71.9845C93.9575 71.465 94.3956 71.0222 94.9121 70.6861C94.6448 70.2742 94.503 69.7938 94.5041 69.3031C94.4885 68.7036 94.6938 68.1193 95.081 67.6606C95.4683 67.2019 96.0107 66.9006 96.6056 66.8138C97.2005 66.727 97.8067 66.8606 98.3095 67.1895C98.8123 67.5183 99.1768 68.0195 99.3341 68.5983C99.6546 68.0494 100.113 67.5936 100.665 67.2761C101.217 66.9586 101.842 66.7903 102.479 66.788C104.512 66.788 106.151 68.4652 106.151 70.534C106.151 70.9747 106.075 71.4122 105.926 71.827C106.001 71.827 106.074 71.8156 106.151 71.8156C107.779 71.8156 109.098 73.1618 109.098 74.8225C109.098 74.9252 109.098 75.0266 109.083 75.1254C109.746 75.4217 110.308 75.9037 110.701 76.5127C111.094 77.1217 111.301 77.8315 111.297 78.5557C111.297 80.6182 109.659 82.289 107.637 82.289C107.423 82.2888 107.211 82.2697 107.001 82.232C107.013 82.3587 107.019 82.4855 107.019 82.6122C107.019 84.9257 105.18 86.8019 102.911 86.8019C102.072 86.802 101.255 86.541 100.572 86.0552C100.023 86.5358 99.3173 86.8011 98.5867 86.8019C96.8924 86.8019 95.5184 85.4011 95.5184 83.672C95.5184 83.5972 95.5184 83.5237 95.5298 83.4502H95.5184C93.7033 83.4502 92.2327 81.9493 92.2327 80.0985C92.2296 79.4854 92.3947 78.8831 92.7101 78.3569C93.0256 77.8307 93.4794 77.4006 94.0223 77.1131Z" fill="#00897B"/>
<path d="M101.456 72.3315H100.501V96H101.456V72.3315Z" fill="url(#paint24_linear)"/>
<path d="M101.185 72.6637H100.704V96H101.185V72.6637Z" fill="#795548"/>
<path d="M97.2908 75.3093L96.9382 75.6349L100.876 79.8763L101.229 79.5507L97.2908 75.3093Z" fill="#795548"/>
<path d="M104.993 80.1308L100.909 83.1555L101.196 83.5402L105.28 80.5154L104.993 80.1308Z" fill="#795548"/>
<path d="M99.5058 79.7651C100.15 79.0812 100.509 78.1783 100.51 77.2399C100.507 76.5918 100.336 75.9556 100.013 75.3932C99.6897 74.8309 99.226 74.3617 98.6669 74.0314C98.9162 73.6682 99.0492 73.2381 99.0482 72.798C99.0482 71.5608 98.0072 70.5568 96.7235 70.5568C96.2275 70.5517 95.743 70.7056 95.3414 70.996C94.9398 71.2863 94.6423 71.6976 94.4928 72.1692C94.1757 71.6719 93.7371 71.263 93.2182 70.981C92.6993 70.6989 92.1171 70.553 91.5261 70.5568C89.6119 70.5568 88.0612 72.0513 88.0612 73.8958C88.061 74.2896 88.1329 74.6801 88.2735 75.0481C88.2036 75.0481 88.1324 75.038 88.0612 75.038C86.5258 75.038 85.2802 76.2372 85.2802 77.7178C85.2802 77.808 85.2848 77.8981 85.2942 77.9878C84.6818 78.2341 84.1564 78.6562 83.7847 79.2005C83.4129 79.7448 83.2115 80.3869 83.2058 81.0454C83.2058 82.8835 84.7527 84.373 86.6593 84.373C86.8595 84.3728 87.0593 84.3558 87.2567 84.3223C87.2465 84.4326 87.2401 84.5454 87.2401 84.6582C87.2401 86.7207 88.9751 88.3928 91.1156 88.3928C91.9011 88.3946 92.6693 88.1629 93.3221 87.7272C93.8509 88.1634 94.5159 88.4015 95.202 88.4004C96.801 88.4004 98.0975 87.1517 98.0975 85.6115C98.0975 85.5443 98.0975 85.4848 98.0873 85.4138H98.0975C99.8096 85.4138 101.198 84.0764 101.198 82.4259C101.193 81.8689 101.033 81.3243 100.734 80.8539C100.435 80.3835 100.009 80.0063 99.5058 79.7651V79.7651Z" fill="url(#paint25_linear)"/>
<path d="M99.1932 79.7536C99.8116 79.0996 100.157 78.2352 100.159 77.3362C100.156 76.7166 99.9913 76.1085 99.6821 75.5712C99.3729 75.0338 98.9295 74.5854 98.3949 74.2697C98.6347 73.9226 98.7632 73.5111 98.7635 73.0895C98.7635 71.9055 97.767 70.9446 96.5379 70.9446C96.0631 70.9398 95.5992 71.0872 95.2147 71.3652C94.8303 71.6432 94.5456 72.037 94.4025 72.4887C94.0991 72.0126 93.6793 71.6211 93.1826 71.3511C92.686 71.081 92.1287 70.9412 91.563 70.9446C89.7314 70.9446 88.2468 72.3758 88.2468 74.1404C88.2467 74.5173 88.3156 74.8911 88.4502 75.2433C88.3828 75.2433 88.3155 75.2331 88.2468 75.2331C86.7762 75.2331 85.5852 76.3816 85.5852 77.7976C85.5856 77.8823 85.5903 77.9669 85.5992 78.0512C85.0131 78.2869 84.5103 78.6907 84.1545 79.2115C83.7986 79.7323 83.6055 80.3467 83.5999 80.9769C83.5999 82.7364 85.0794 84.1625 86.9046 84.1625C87.0963 84.1624 87.2876 84.1463 87.4766 84.1144C87.4664 84.2209 87.4613 84.3273 87.4613 84.4364C87.4613 86.4101 89.1226 88.0112 91.1703 88.0112C91.9219 88.014 92.6574 87.7933 93.2827 87.3773C93.7887 87.7898 94.4227 88.0139 95.0762 88.0112C96.6015 88.0112 97.8471 86.8158 97.8471 85.3415C97.8471 85.2781 97.8471 85.2147 97.8369 85.1526H97.8471C99.4855 85.1526 100.815 83.8722 100.815 82.2927C100.809 81.7607 100.654 81.2409 100.368 80.7921C100.081 80.3434 99.6742 79.9836 99.1932 79.7536Z" fill="#009688"/>
<path d="M93.4671 76.0154H92.3816V95.8809H93.4671V76.0154Z" fill="url(#paint26_linear)"/>
<path d="M93.2052 76.0154H92.6052V95.8809H93.2052V76.0154Z" fill="#795548"/>
<path d="M96.1873 78.1376L92.6309 81.7559L93.0593 82.1748L96.6157 78.5565L96.1873 78.1376Z" fill="#795548"/>
<path d="M89.3297 82.2512L88.9851 82.741L92.6724 85.3217L93.017 84.8319L89.3297 82.2512Z" fill="#795548"/>
</g>
<defs>
<linearGradient id="paint0_linear" x1="90.1177" y1="30.112" x2="97.6169" y2="30.112" gradientUnits="userSpaceOnUse">
<stop stop-color="#808080" stop-opacity="0.25"/>
<stop offset="0.54" stop-color="#808080" stop-opacity="0.12"/>
<stop offset="1" stop-color="#808080" stop-opacity="0.1"/>
</linearGradient>
<linearGradient id="paint1_linear" x1="11505.7" y1="1533.87" x2="11505.7" y2="0" gradientUnits="userSpaceOnUse">
<stop stop-color="#808080" stop-opacity="0.25"/>
<stop offset="0.54" stop-color="#808080" stop-opacity="0.12"/>
<stop offset="1" stop-color="#808080" stop-opacity="0.1"/>
</linearGradient>
<linearGradient id="paint2_linear" x1="16847.2" y1="28487.3" x2="16847.2" y2="8071.7" gradientUnits="userSpaceOnUse">
<stop stop-color="#808080" stop-opacity="0.25"/>
<stop offset="0.54" stop-color="#808080" stop-opacity="0.12"/>
<stop offset="1" stop-color="#808080" stop-opacity="0.1"/>
</linearGradient>
<linearGradient id="paint3_linear" x1="492.552" y1="37333.9" x2="492.552" y2="12173.5" gradientUnits="userSpaceOnUse">
<stop stop-color="#808080" stop-opacity="0.25"/>
<stop offset="0.54" stop-color="#808080" stop-opacity="0.12"/>
<stop offset="1" stop-color="#808080" stop-opacity="0.1"/>
</linearGradient>
<linearGradient id="paint4_linear" x1="22646.9" y1="24599.5" x2="22646.9" y2="10311.8" gradientUnits="userSpaceOnUse">
<stop stop-color="#808080" stop-opacity="0.25"/>
<stop offset="0.54" stop-color="#808080" stop-opacity="0.12"/>
<stop offset="1" stop-color="#808080" stop-opacity="0.1"/>
</linearGradient>
<linearGradient id="paint5_linear" x1="967.347" y1="31241.2" x2="967.347" y2="13516.7" gradientUnits="userSpaceOnUse">
<stop stop-color="#808080" stop-opacity="0.25"/>
<stop offset="0.54" stop-color="#808080" stop-opacity="0.12"/>
<stop offset="1" stop-color="#808080" stop-opacity="0.1"/>
</linearGradient>
<linearGradient id="paint6_linear" x1="49736" y1="38132.2" x2="49736" y2="19806" gradientUnits="userSpaceOnUse">
<stop stop-color="#808080" stop-opacity="0.25"/>
<stop offset="0.54" stop-color="#808080" stop-opacity="0.12"/>
<stop offset="1" stop-color="#808080" stop-opacity="0.1"/>
</linearGradient>
<linearGradient id="paint7_linear" x1="8384.48" y1="5548.23" x2="8384.48" y2="3822.4" gradientUnits="userSpaceOnUse">
<stop stop-color="#808080" stop-opacity="0.25"/>
<stop offset="0.54" stop-color="#808080" stop-opacity="0.12"/>
<stop offset="1" stop-color="#808080" stop-opacity="0.1"/>
</linearGradient>
<linearGradient id="paint8_linear" x1="5288.83" y1="6985.8" x2="5288.83" y2="5637.53" gradientUnits="userSpaceOnUse">
<stop stop-color="#808080" stop-opacity="0.25"/>
<stop offset="0.54" stop-color="#808080" stop-opacity="0.12"/>
<stop offset="1" stop-color="#808080" stop-opacity="0.1"/>
</linearGradient>
<linearGradient id="paint9_linear" x1="9521.68" y1="6985.8" x2="9521.68" y2="5637.53" gradientUnits="userSpaceOnUse">
<stop stop-color="#808080" stop-opacity="0.25"/>
<stop offset="0.54" stop-color="#808080" stop-opacity="0.12"/>
<stop offset="1" stop-color="#808080" stop-opacity="0.1"/>
</linearGradient>
<linearGradient id="paint10_linear" x1="46437.2" y1="18027.4" x2="46437.2" y2="4226.79" gradientUnits="userSpaceOnUse">
<stop stop-color="#808080" stop-opacity="0.25"/>
<stop offset="0.54" stop-color="#808080" stop-opacity="0.12"/>
<stop offset="1" stop-color="#808080" stop-opacity="0.1"/>
</linearGradient>
<linearGradient id="paint11_linear" x1="9043.68" y1="15721.1" x2="9043.68" y2="11953" gradientUnits="userSpaceOnUse">
<stop stop-color="#808080" stop-opacity="0.25"/>
<stop offset="0.54" stop-color="#808080" stop-opacity="0.12"/>
<stop offset="1" stop-color="#808080" stop-opacity="0.1"/>
</linearGradient>
<linearGradient id="paint12_linear" x1="1955.77" y1="2118.61" x2="1955.77" y2="2039.38" gradientUnits="userSpaceOnUse">
<stop stop-color="#808080" stop-opacity="0.25"/>
<stop offset="0.54" stop-color="#808080" stop-opacity="0.12"/>
<stop offset="1" stop-color="#808080" stop-opacity="0.1"/>
</linearGradient>
<linearGradient id="paint13_linear" x1="10930.5" y1="4788.66" x2="10930.5" y2="4471.75" gradientUnits="userSpaceOnUse">
<stop stop-color="#808080" stop-opacity="0.25"/>
<stop offset="0.54" stop-color="#808080" stop-opacity="0.12"/>
<stop offset="1" stop-color="#808080" stop-opacity="0.1"/>
</linearGradient>
<linearGradient id="paint14_linear" x1="9497.83" y1="17087.8" x2="9497.83" y2="12748.8" gradientUnits="userSpaceOnUse">
<stop stop-color="#808080" stop-opacity="0.25"/>
<stop offset="0.54" stop-color="#808080" stop-opacity="0.12"/>
<stop offset="1" stop-color="#808080" stop-opacity="0.1"/>
</linearGradient>
<linearGradient id="paint15_linear" x1="321.912" y1="19333.8" x2="321.912" y2="13987.7" gradientUnits="userSpaceOnUse">
<stop stop-color="#808080" stop-opacity="0.25"/>
<stop offset="0.54" stop-color="#808080" stop-opacity="0.12"/>
<stop offset="1" stop-color="#808080" stop-opacity="0.1"/>
</linearGradient>
<linearGradient id="paint16_linear" x1="10064.6" y1="14471.9" x2="10064.6" y2="11435" gradientUnits="userSpaceOnUse">
<stop stop-color="#808080" stop-opacity="0.25"/>
<stop offset="0.54" stop-color="#808080" stop-opacity="0.12"/>
<stop offset="1" stop-color="#808080" stop-opacity="0.1"/>
</linearGradient>
<linearGradient id="paint17_linear" x1="453.237" y1="16219.2" x2="453.237" y2="12453" gradientUnits="userSpaceOnUse">
<stop stop-color="#808080" stop-opacity="0.25"/>
<stop offset="0.54" stop-color="#808080" stop-opacity="0.12"/>
<stop offset="1" stop-color="#808080" stop-opacity="0.1"/>
</linearGradient>
<linearGradient id="paint18_linear" x1="263.411" y1="26616.4" x2="263.411" y2="16677.9" gradientUnits="userSpaceOnUse">
<stop stop-color="#808080" stop-opacity="0.25"/>
<stop offset="0.54" stop-color="#808080" stop-opacity="0.12"/>
<stop offset="1" stop-color="#808080" stop-opacity="0.1"/>
</linearGradient>
<linearGradient id="paint19_linear" x1="5083.58" y1="3337.12" x2="5083.58" y2="3034.18" gradientUnits="userSpaceOnUse">
<stop stop-color="#808080" stop-opacity="0.25"/>
<stop offset="0.54" stop-color="#808080" stop-opacity="0.12"/>
<stop offset="1" stop-color="#808080" stop-opacity="0.1"/>
</linearGradient>
<linearGradient id="paint20_linear" x1="97.6666" y1="1100.82" x2="97.6666" y2="1068.37" gradientUnits="userSpaceOnUse">
<stop stop-color="#808080" stop-opacity="0.25"/>
<stop offset="0.54" stop-color="#808080" stop-opacity="0.12"/>
<stop offset="1" stop-color="#808080" stop-opacity="0.1"/>
</linearGradient>
<linearGradient id="paint21_linear" x1="560.551" y1="1100.82" x2="560.551" y2="1068.37" gradientUnits="userSpaceOnUse">
<stop stop-color="#808080" stop-opacity="0.25"/>
<stop offset="0.54" stop-color="#808080" stop-opacity="0.12"/>
<stop offset="1" stop-color="#808080" stop-opacity="0.1"/>
</linearGradient>
<linearGradient id="paint22_linear" x1="1664.52" y1="9338.34" x2="5405.37" y2="9338.34" gradientUnits="userSpaceOnUse">
<stop stop-color="#808080" stop-opacity="0.25"/>
<stop offset="0.54" stop-color="#808080" stop-opacity="0.12"/>
<stop offset="1" stop-color="#808080" stop-opacity="0.1"/>
</linearGradient>
<linearGradient id="paint23_linear" x1="-10111.1" y1="16055.2" x2="-10111.1" y2="12469.1" gradientUnits="userSpaceOnUse">
<stop stop-color="#808080" stop-opacity="0.25"/>
<stop offset="0.54" stop-color="#808080" stop-opacity="0.12"/>
<stop offset="1" stop-color="#808080" stop-opacity="0.1"/>
</linearGradient>
<linearGradient id="paint24_linear" x1="-418.735" y1="19409" x2="-418.735" y2="14989.9" gradientUnits="userSpaceOnUse">
<stop stop-color="#808080" stop-opacity="0.25"/>
<stop offset="0.54" stop-color="#808080" stop-opacity="0.12"/>
<stop offset="1" stop-color="#808080" stop-opacity="0.1"/>
</linearGradient>
<linearGradient id="paint25_linear" x1="-10295.5" y1="13584.5" x2="-10295.5" y2="11073.7" gradientUnits="userSpaceOnUse">
<stop stop-color="#808080" stop-opacity="0.25"/>
<stop offset="0.54" stop-color="#808080" stop-opacity="0.12"/>
<stop offset="1" stop-color="#808080" stop-opacity="0.1"/>
</linearGradient>
<linearGradient id="paint26_linear" x1="-545.732" y1="16285.8" x2="-545.732" y2="13172.7" gradientUnits="userSpaceOnUse">
<stop stop-color="#808080" stop-opacity="0.25"/>
<stop offset="0.54" stop-color="#808080" stop-opacity="0.12"/>
<stop offset="1" stop-color="#808080" stop-opacity="0.1"/>
</linearGradient>
<clipPath id="clip0">
<rect width="112.615" height="96" fill="white"/>
</clipPath>
</defs>
</svg>
