<svg width="144" height="96" viewBox="0 0 144 96" fill="none" xmlns="http://www.w3.org/2000/svg">
<path d="M144 94.9149H0V96H144V94.9149Z" fill="#85848B"/>
<path d="M114.085 75.7557C114.085 76.5903 109.367 79.0236 103.763 79.0236C98.158 79.0236 93.791 76.5903 93.791 75.7557C93.791 74.921 98.3336 75.1898 103.944 75.1898C109.554 75.1898 114.085 74.9196 114.085 75.7557Z" fill="#504F60"/>
<path opacity="0.2" d="M114.085 75.7557C114.085 76.5903 109.367 79.0236 103.763 79.0236C98.158 79.0236 93.791 76.5903 93.791 75.7557" fill="black"/>
<path d="M57.6437 60.4402C58.5533 60.5604 59.4972 60.6368 60.3684 60.3454C60.5056 60.3015 60.6566 60.2039 60.6428 60.0624C60.633 60.011 60.6119 59.9626 60.5811 59.921C60.2527 59.4131 59.9768 58.8711 59.7579 58.304C59.7492 58.2744 59.7314 58.2486 59.7072 58.2304C59.6788 58.2198 59.6477 58.2198 59.6193 58.2304C59.2174 58.3394 58.8702 58.6067 58.471 58.7213C58.2674 58.7789 58.055 58.7952 57.8454 58.7694C57.6643 58.7482 57.4173 58.594 57.2527 58.6138C57.346 59.232 57.5737 59.8092 57.6437 60.4402Z" fill="#6C63FF"/>
<path d="M74.847 58.8741C75.4465 58.4497 76.068 58.004 76.422 57.349C76.4473 57.3098 76.4619 57.2644 76.4645 57.2175C76.4585 57.1712 76.441 57.1274 76.4138 57.0901C76.0766 56.5374 75.6425 56.0543 75.1337 55.6655C74.8682 55.8589 74.6284 56.0872 74.4203 56.3446C74.2693 56.5087 73.8523 56.769 73.8481 57.0194C73.8481 57.1609 74.0073 57.325 74.0814 57.4438C74.1815 57.5966 74.2762 57.7522 74.3668 57.9107C74.4189 57.9885 74.895 58.8429 74.847 58.8741Z" fill="#6C63FF"/>
<path d="M61.2093 62.3344C61.22 62.4802 61.1812 62.6252 61.0996 62.7447C61.0355 62.8111 60.9562 62.8598 60.8691 62.8862C59.5972 63.3558 58.1251 62.7702 56.856 63.2328C56.5954 63.3276 56.3484 63.4648 56.0863 63.5553C55.7739 63.6522 55.4516 63.711 55.126 63.7307C54.6773 63.7746 54.2259 63.8029 53.7759 63.8156C53.434 63.8406 53.0904 63.8096 52.7579 63.7237C52.5917 63.6798 52.4362 63.6003 52.3017 63.4904C52.1672 63.3804 52.0567 63.2425 51.9773 63.0856C51.9083 62.945 51.8945 62.7824 51.9389 62.6315C51.9588 62.5798 51.9871 62.532 52.0226 62.4901C52.1086 62.3906 52.2096 62.306 52.3216 62.2397L52.7895 61.9284C53.0089 61.7685 53.2473 61.6382 53.4988 61.5408C53.684 61.4785 53.8802 61.4517 54.0682 61.3993C54.7253 61.2013 55.2275 60.6637 55.694 60.1473L56.3306 59.447C56.3901 59.37 56.4655 59.3076 56.5514 59.2645C56.6397 59.2342 56.7336 59.225 56.8258 59.2377C57.4442 59.2832 58.0413 59.4896 58.5614 59.8375C58.6943 59.9403 58.8379 60.0276 58.9894 60.0978C59.3626 60.2478 59.8415 60.1346 60.1858 59.945C60.3491 59.8545 60.3134 59.8035 60.382 59.6423C60.4506 59.481 60.618 59.3777 60.7634 59.5248C60.8073 59.5757 60.8384 59.6369 60.854 59.7031C60.9912 60.1699 60.939 60.6722 60.939 61.1617C60.935 61.2382 60.9443 61.3148 60.9665 61.388C61.0015 61.4618 61.0433 61.5319 61.0913 61.5974C61.1011 61.6147 61.1098 61.6327 61.1174 61.6511C61.2013 61.8679 61.2329 62.1024 61.2093 62.3344V62.3344Z" fill="#514E7F"/>
<path d="M61.2093 62.3344C61.22 62.4802 61.1812 62.6252 61.0996 62.7447C61.0355 62.8111 60.9562 62.8598 60.8691 62.8862C59.5972 63.3558 58.1251 62.7702 56.856 63.2328C56.5954 63.3276 56.3484 63.4648 56.0863 63.5553C55.7739 63.6522 55.4516 63.711 55.126 63.7307C54.6773 63.7746 54.2259 63.8029 53.7759 63.8156C53.434 63.8406 53.0904 63.8096 52.7579 63.7237C52.5917 63.6798 52.4362 63.6003 52.3017 63.4904C52.1672 63.3804 52.0567 63.2425 51.9773 63.0856C51.9083 62.945 51.8945 62.7824 51.9389 62.6315C51.9588 62.5798 51.9871 62.532 52.0226 62.49C52.0966 62.6499 52.1501 62.8621 52.1968 62.9385C52.2598 63.0517 52.3455 63.1498 52.4482 63.2261C52.5509 63.3025 52.6682 63.3554 52.7922 63.3813C52.9779 63.3931 53.1641 63.3686 53.341 63.3092C54.4935 63.0149 55.7187 63.0107 56.8258 62.565C57.2059 62.4108 57.5681 62.2057 57.9673 62.1123C58.3666 62.019 58.7905 62.0444 59.2021 62.009C59.8524 61.9553 60.4822 61.753 61.1229 61.6469C61.2056 61.8654 61.2353 62.1014 61.2093 62.3344V62.3344Z" fill="#464353"/>
<path d="M77.7597 58.7878C77.6993 59.2858 77.3934 59.7144 77.0572 60.078C76.7211 60.4416 76.341 60.7684 76.0735 61.1871C75.7442 61.7063 75.5961 62.35 75.168 62.7886C75.0037 62.9481 74.8191 63.0837 74.6192 63.1918C74.3953 63.328 74.1586 63.4403 73.9126 63.527C73.2733 63.7378 72.5846 63.6897 71.9164 63.6388C71.6995 63.6367 71.4847 63.594 71.2826 63.5129C71.1905 63.4647 71.1024 63.4089 71.0191 63.346C70.8517 63.2396 70.7107 63.0943 70.6075 62.9216C70.5569 62.8277 70.5427 62.7174 70.5678 62.6132C70.6059 62.4983 70.6715 62.3951 70.7585 62.3132C70.9088 62.152 71.0702 62.0021 71.2414 61.8648C71.4763 61.7085 71.6879 61.5179 71.8698 61.2989C71.9813 61.1259 72.0634 60.9345 72.1126 60.733C72.2098 60.38 72.2691 60.0171 72.2896 59.6508C72.2888 59.4074 72.3132 59.1645 72.3623 58.9264C72.4638 58.553 72.7327 58.2191 72.7026 57.8329C72.6903 57.7776 72.6951 57.7197 72.7163 57.6674C72.7482 57.6264 72.7928 57.598 72.8425 57.5867C73.0522 57.5006 73.2733 57.4476 73.4983 57.4297C73.6112 57.4217 73.7244 57.4396 73.8297 57.4822C73.9351 57.5247 74.0299 57.5909 74.1075 57.6759C74.2008 57.7919 74.2625 57.9588 74.3997 58.0041C74.4677 58.0232 74.539 58.0261 74.6082 58.0126C74.9457 57.9772 75.3025 57.9333 75.5686 57.7084C75.6916 57.5946 75.7905 57.4558 75.859 57.3007C75.9275 57.1456 75.9641 56.9776 75.9665 56.8072C75.9665 56.6785 75.9102 56.5441 76.1037 56.5243C76.2491 56.5045 76.3644 56.6658 76.4385 56.7648C76.706 57.134 76.9804 57.5202 77.0805 57.9701C77.1195 57.9545 77.1609 57.9464 77.2026 57.9461C77.2882 57.9453 77.3727 57.9658 77.4489 58.006C77.5251 58.0461 77.5908 58.1047 77.6403 58.1767C77.7496 58.3592 77.7919 58.5759 77.7597 58.7878Z" fill="#514E7F"/>
<path d="M77.7595 58.7878C77.6992 59.2858 77.3932 59.7144 77.0571 60.078C76.7209 60.4416 76.3409 60.7684 76.0734 61.1871C75.7441 61.7063 75.5959 62.35 75.1679 62.7886C75.0036 62.9481 74.8189 63.0837 74.6191 63.1918C74.3952 63.328 74.1585 63.4403 73.9125 63.527C73.2732 63.7378 72.5844 63.6897 71.9163 63.6388C71.6994 63.6367 71.4846 63.594 71.2824 63.5129C71.1904 63.4647 71.1023 63.4089 71.019 63.346C70.8515 63.2396 70.7106 63.0943 70.6074 62.9216C70.736 62.8578 70.8764 62.8231 71.019 62.8197C71.3154 62.8367 71.5321 63.1253 71.8161 63.2144C72.2209 63.3403 72.6242 63.046 73.0344 62.9456C73.302 62.8805 73.5832 62.8975 73.848 62.8041C74.0687 62.7162 74.2726 62.5888 74.4503 62.4278C74.6939 62.2482 74.9107 62.0328 75.0938 61.7884C75.2458 61.544 75.3723 61.2836 75.4711 61.0117C75.6877 60.4906 75.9427 59.9874 76.2339 59.5065C76.277 59.4303 76.329 59.36 76.3889 59.2971C76.4534 59.2363 76.5261 59.1938 76.5988 59.1401C76.8732 58.9265 76.9871 58.5742 77.0831 58.229C77.1092 58.1241 77.1455 58.0222 77.1915 57.9249C77.2771 57.9241 77.3616 57.9446 77.4378 57.9848C77.514 58.0249 77.5797 58.0835 77.6292 58.1554C77.7472 58.3423 77.7937 58.5677 77.7595 58.7878V58.7878Z" fill="#464353"/>
<path d="M48.9905 14.6803C49.332 14.9442 49.613 15.2823 49.8136 15.6706C50.0057 16.0582 51.1129 19.0659 51.0484 19.503C51.4093 19.1281 52.832 19.0673 53.1969 18.6924C53.3492 18.5354 54.171 17.7516 54.2945 17.5691C54.418 17.3866 55.3345 17.0032 55.4346 16.8108C55.8092 16.1191 52.7785 13.4976 53.1668 12.8143C53.1882 12.7829 53.1993 12.7452 53.1983 12.7068C53.1895 12.6746 53.1719 12.6456 53.1476 12.6233C52.8992 12.3616 52.57 12.1989 52.2709 12.0051C51.9718 11.8113 51.6837 11.5411 51.6027 11.1846C51.3175 11.32 51.0556 11.5025 50.8275 11.725C50.2714 12.2164 49.7249 12.7177 49.188 13.2288C48.9781 13.4297 48.572 13.6971 48.4746 13.9843C48.3594 14.2927 48.7902 14.512 48.9905 14.6803Z" fill="#A1616A"/>
<path d="M53.8967 13.567C53.4317 13.8892 52.9972 14.2558 52.5988 14.6619C52.2229 15.0453 51.8662 15.4895 51.7756 16.0257C51.7372 16.2365 51.7427 16.4501 51.7111 16.6637C51.5739 17.5904 50.7974 18.2694 50.4544 19.1366C50.355 19.4043 50.282 19.6815 50.2362 19.9642C50.1399 20.5001 50.0871 21.0433 50.0785 21.5883C50.0702 22.116 50.5724 22.4796 50.7562 22.9719C50.9401 23.4642 50.9895 23.9706 51.0828 24.4757C51.2584 25.4292 51.5808 26.3488 51.9059 27.2626C52.5823 29.1895 54.7747 34.5158 55.4511 36.444C57.5242 35.9079 63.0423 34.6757 64.878 33.5453C65.4899 33.169 60.6317 28.9235 61.2862 28.6307C61.3236 28.6247 61.3591 28.6098 61.39 28.5872C61.4209 28.5646 61.4462 28.5349 61.464 28.5004C61.4819 28.466 61.4917 28.4278 61.4927 28.3887C61.4938 28.3497 61.486 28.311 61.47 28.2756C60.8156 25.3245 58.7686 22.8997 57.8397 20.0265C57.5173 19.0291 56.9384 18.1775 56.4993 17.2296C56.1014 16.3709 55.8888 15.4216 55.4127 14.6053C55.323 14.4372 55.2055 14.2864 55.0656 14.1597C54.9469 14.0658 54.8185 13.9857 54.6828 13.9206C54.4112 13.7848 54.1587 13.7042 53.8967 13.567Z" fill="#514E7F"/>
<path d="M49.1004 14.3451C50.8925 14.3451 52.3452 12.8471 52.3452 10.9993C52.3452 9.15149 50.8925 7.65354 49.1004 7.65354C47.3084 7.65354 45.8557 9.15149 45.8557 10.9993C45.8557 12.8471 47.3084 14.3451 49.1004 14.3451Z" fill="#A1616A"/>
<path d="M52.4014 12.571C52.5631 12.4172 52.7662 12.3176 52.984 12.2852C53.2017 12.2529 53.4238 12.2894 53.6211 12.3899C53.8406 12.5073 54.0326 12.745 53.9833 12.994L55.5926 13.0194C55.8487 13.0122 56.1048 13.0364 56.3554 13.0916C56.6076 13.1482 56.8328 13.2938 56.992 13.5033C57.0112 13.5301 57.0332 13.5627 57.0661 13.5669C57.0929 13.5674 57.119 13.5584 57.1402 13.5415C57.3877 13.4134 57.6666 13.3642 57.9414 13.4C58.8112 13.458 59.6152 13.9065 60.2971 14.4667C60.4201 14.5538 60.5155 14.6763 60.5715 14.8189C60.6277 15.0071 60.5605 15.2433 60.7087 15.3777C60.7087 16.9339 61.2273 18.3882 61.573 19.9048C61.6348 20.175 61.8858 20.4141 62.0601 20.6263C62.2754 20.8615 62.4511 21.1321 62.5801 21.427C62.8737 22.2136 62.4689 23.1388 62.7543 23.9282C62.875 24.262 63.1083 24.5365 63.3031 24.8265C63.5599 25.1614 63.7223 25.5628 63.7723 25.9866C63.7847 26.1761 63.7613 26.3671 63.7723 26.5524C63.7907 26.8073 63.8367 27.0593 63.9095 27.3037C64.0266 27.7601 64.1492 28.2161 64.2772 28.6717C64.4857 29.4073 64.7574 30.201 65.3967 30.5928C63.8533 30.863 62.2261 31.1276 60.7553 30.5744C60.5502 30.5023 60.3554 30.4019 60.1764 30.2759C59.6454 29.8855 59.3888 29.2177 59.1597 28.5868C58.9045 27.8794 58.6452 27.1594 58.5931 26.4067C58.5936 26.1674 58.5608 25.9292 58.4957 25.6994C58.3461 25.2891 57.9469 25.0415 57.5847 24.8138C57.1757 24.5827 56.8051 24.2856 56.4871 23.9338C56.3293 23.7567 56.2084 23.548 56.132 23.3207C56.0555 23.0934 56.0251 22.8524 56.0426 22.6125C56.07 22.3791 56.1592 22.1542 56.1674 21.9193C56.1757 21.6845 56.0741 21.4157 55.856 21.3534C54.7324 21.0026 54.1959 19.6303 53.9462 18.4476C53.8385 17.8364 53.7902 17.2155 53.8022 16.5944L53.7871 15.3876C53.632 15.2422 53.5073 15.0657 53.4205 14.8689C53.3337 14.6722 53.2866 14.4593 53.2822 14.2432C53.2971 14.1171 53.2948 13.9894 53.2753 13.864C53.221 13.7107 53.1327 13.5726 53.0174 13.4608C52.7693 13.1983 52.5616 12.8982 52.4014 12.571V12.571Z" fill="#464353"/>
<path d="M48.9454 16.3964C48.9084 16.7698 48.9907 17.1532 48.9097 17.5196C48.8782 17.6611 48.8233 17.8026 48.7835 17.9341C48.6619 18.4615 48.7145 19.0157 48.9331 19.5087C49.1513 19.9969 49.4126 20.4633 49.7137 20.9022C49.8156 21.052 49.8994 21.214 49.9634 21.3846C50.0153 21.5637 50.0475 21.7483 50.0595 21.9349C50.1389 22.6841 50.2663 23.427 50.4409 24.1588C50.5945 24.7926 52.3397 30.2109 52.7458 30.7131C52.8195 30.8243 52.9312 30.9026 53.0586 30.9324C53.1505 30.9359 53.2418 30.9165 53.3248 30.8758L54.148 30.5504C54.218 30.5283 54.2829 30.4917 54.3387 30.4429C54.4158 30.3499 54.4577 30.2313 54.4567 30.109C54.5157 29.4186 52.7664 23.9622 52.5441 23.31C51.8718 21.3407 50.9773 19.4422 50.5397 17.4036C50.4175 16.8377 50.3531 15.9663 49.9511 15.515C49.7851 15.3283 49.8413 15.4075 49.6424 15.5051C49.5419 15.5501 49.4446 15.6026 49.3515 15.6621C49.2351 15.7456 49.1382 15.8548 49.0679 15.9819C48.9977 16.1089 48.9558 16.2505 48.9454 16.3964Z" fill="#464353"/>
<path d="M51.4436 20.1325C51.6645 21.3365 51.8922 22.5375 52.1186 23.7414L55.34 22.8714C55.3661 22.5234 55.1864 22.2008 55.0656 21.8811C54.772 21.1214 54.7652 20.2754 54.5278 19.4945C54.3481 18.9003 54.0353 18.3543 53.8665 17.7559C53.7691 17.4078 53.7197 17.0485 53.6237 16.6962C53.5207 16.3503 53.3941 16.0123 53.245 15.6847C53.0642 15.2097 52.8283 14.7589 52.5426 14.3422C52.131 14.5006 51.6919 14.6845 51.4573 15.0679C51.337 15.2839 51.2683 15.5264 51.257 15.7753C51.2008 16.5208 51.4628 17.2706 51.3764 18.0119C51.2874 18.7179 51.3101 19.4341 51.4436 20.1325V20.1325Z" fill="#6C63FF"/>
<path d="M55.3935 36.1469C55.5746 36.8543 55.3126 37.5984 55.0986 38.2987C54.7763 39.3535 54.5567 40.4387 54.4428 41.5384C54.4288 41.8182 54.3742 42.0943 54.2809 42.3575C54.1793 42.5937 54.0065 42.7932 53.8885 43.0181C53.5647 43.6095 53.5729 44.331 53.6429 45.0072C53.6896 45.4528 53.7595 45.897 53.846 46.3356C53.9516 46.8718 54.0819 47.432 53.9296 47.9554C54.1848 47.8974 54.3577 48.2384 54.3412 48.5057C54.3248 48.7731 54.2411 49.0716 54.3659 49.3022C54.6815 49.4211 54.6842 49.8681 54.6746 50.2147C54.6799 50.8157 54.7535 51.414 54.8941 51.9972C55.3716 54.3645 55.8783 56.7251 56.4143 59.0792C57.5736 59.4499 58.9278 59.8361 60.0336 59.3225C60.2394 59.2277 60.4452 59.0764 60.4918 58.8472C60.5039 58.7237 60.4889 58.5989 60.4479 58.4822L59.9238 56.5158C59.7962 56.0404 59.6686 55.5495 59.7359 55.0615C59.7866 54.6979 59.9403 54.306 59.7674 53.9849C59.7084 53.8745 59.6151 53.7882 59.5465 53.6835C59.2721 53.269 59.4162 52.7145 59.4381 52.2123C59.4467 52.0995 59.4393 51.9861 59.4162 51.8756C59.3786 51.7465 59.3261 51.6225 59.2598 51.5063C58.8267 50.6393 58.6187 49.6713 58.6561 48.6967C58.6725 48.5724 58.6559 48.4457 58.6081 48.3303C58.5748 48.2827 58.545 48.2326 58.5189 48.1804C58.4985 48.0895 58.5086 47.9942 58.5477 47.9102C58.3905 47.7871 58.2486 47.6446 58.1252 47.4858C58.2013 47.437 58.2656 47.371 58.3134 47.2928C58.3611 47.2146 58.391 47.1263 58.4008 47.0345C58.4106 46.9426 58.4 46.8497 58.3698 46.7627C58.3396 46.6757 58.2907 46.5969 58.2267 46.5322C58.2826 46.5206 58.3344 46.4932 58.3761 46.4531C58.4179 46.413 58.4481 46.3618 58.4633 46.305C58.4785 46.2483 58.4781 46.1883 58.4623 46.1318C58.4464 46.0753 58.4157 46.0244 58.3735 45.9848C58.3063 45.9367 58.2171 45.9154 58.1691 45.8433C58.095 45.7386 58.1553 45.5929 58.2157 45.4811L58.5354 44.8855C58.7741 44.4427 58.8276 43.8952 59.0842 43.4708C59.4519 42.8526 59.692 42.1637 59.9293 41.4818L60.8526 38.8547L61.4742 39.4107C61.6812 39.5737 61.8547 39.7776 61.9845 40.0105C62.0729 40.2406 62.1288 40.4826 62.1505 40.7292C62.3783 42.1552 63.2481 43.3916 63.5705 44.7964C63.6419 45.1091 63.6899 45.4373 63.8641 45.7046C63.9265 45.7867 63.9825 45.8738 64.0315 45.965C64.0769 46.104 64.1006 46.2497 64.1015 46.3964C64.1303 46.6838 64.2187 46.9614 64.3607 47.2104C64.5028 47.4593 64.6951 47.6739 64.9247 47.8394C65.2306 48.0559 65.6107 48.2044 65.7767 48.5468C65.8099 48.6528 65.856 48.754 65.9139 48.8481C66.0621 49.032 66.3817 49.0532 66.4448 49.2838C66.4805 49.4126 66.4146 49.5668 66.4846 49.6799C66.5244 49.7323 66.5769 49.7729 66.6369 49.7974L67.5301 50.2571C68.5289 50.7721 69.0392 51.9548 69.776 52.8163C70.0304 53.0969 70.2557 53.4042 70.4483 53.7331C70.7666 54.3202 70.9134 55.0572 71.4512 55.4307C71.5958 55.508 71.7273 55.6088 71.8408 55.7292C72.0096 55.9584 71.9478 56.2795 71.9629 56.5681C71.978 56.8567 72.1921 57.2005 72.4582 57.1128C72.3649 57.4623 72.3649 57.8313 72.4582 58.1809C73.6267 58.119 74.7411 57.6536 75.622 56.8595C75.8827 56.6247 76.1337 56.3248 76.1365 55.9683C76.1405 55.9067 76.1271 55.8453 76.0981 55.7914C76.0453 55.7218 75.9758 55.6677 75.8964 55.6344C75.0609 55.1676 74.8098 54.0853 74.3872 53.2068C74.0182 52.4315 73.4721 51.7638 73.0152 51.0437C72.0219 49.4946 71.3442 47.6201 69.8419 46.5973C69.5112 46.3724 69.127 46.1729 68.961 45.8008C68.8691 45.5929 68.8581 45.3552 68.7854 45.1402C68.7127 44.9251 68.5385 44.7158 68.3162 44.7158C68.4397 44.4045 68.415 44.0254 68.4232 43.6887C68.4317 43.5393 68.4149 43.3895 68.3738 43.2459C68.3168 43.0915 68.2426 42.9443 68.1529 42.8073C67.761 42.123 67.565 41.3382 67.5877 40.5438C67.5987 40.135 67.6686 39.7134 67.5493 39.3229C67.4889 39.1263 67.3833 38.9466 67.3106 38.7571C67.201 38.4136 67.1431 38.0548 67.1391 37.6932L67.0567 36.3337C67.0443 35.8809 66.9873 35.4306 66.8866 34.9897C66.6122 33.9344 66.3378 29.5134 65.398 29.0155C64.4582 28.5175 62.8434 31.9198 61.7856 31.9863C61.3176 32.0064 60.8552 32.0984 60.4136 32.2594C59.7098 32.531 59.1198 33.0374 58.545 33.5326L56.5995 35.2175C56.1879 35.5669 55.8477 35.9008 55.3935 36.1469Z" fill="#464353"/>
<path d="M46.0559 7.2843C46.484 6.68164 47.2194 6.36192 47.9438 6.33504C48.6682 6.30816 49.3816 6.543 50.0306 6.87546C50.2221 6.98777 50.4268 7.0743 50.6397 7.13293C50.9827 7.20508 51.3641 7.10888 51.6742 7.2744C52.0858 7.49934 52.1654 8.07229 52.1297 8.54763C52.094 9.02297 52.0076 9.55065 52.2532 9.96233C52.3403 10.0797 52.4196 10.2031 52.4905 10.3316C52.5962 10.5763 52.5344 10.8592 52.4713 11.1181C52.3108 10.9767 52.2202 10.763 52.0775 10.5989C51.9349 10.4348 51.6865 10.3245 51.5095 10.4476C51.3326 10.5706 51.3353 10.7942 51.3257 10.9951C51.3161 11.1959 51.2667 11.4364 51.0829 11.5015C51.0061 11.5195 50.9258 11.5134 50.8524 11.4839C50.7791 11.4544 50.716 11.4029 50.6713 11.336C50.3571 10.9399 50.4833 10.3075 50.1719 9.90857C49.9949 9.68222 49.6999 9.57187 49.5366 9.3342C49.4077 9.14746 49.3747 8.90979 49.2622 8.7089C49.1497 8.50802 48.8877 8.36089 48.7135 8.49953C48.654 8.55811 48.6044 8.62648 48.5667 8.70183C48.458 8.86231 48.3 8.98032 48.1183 9.03679C47.9366 9.09326 47.7417 9.08491 47.5651 9.01306C47.4302 8.92766 47.2842 8.86241 47.1316 8.81925C47.0316 8.81409 46.9323 8.83785 46.8448 8.88785C46.7572 8.93785 46.685 9.01209 46.6363 9.10219C46.5378 9.2822 46.4903 9.48707 46.4991 9.69353C46.4991 9.97647 46.5485 10.2778 46.3921 10.5042C46.3326 10.5894 46.2581 10.6623 46.1726 10.7192C45.9434 10.8706 45.6238 10.9724 45.4125 10.7998C45.3409 10.7311 45.2876 10.6444 45.2578 10.5483C45.228 10.4522 45.2227 10.3498 45.2424 10.2509C45.2835 10.054 45.3376 9.86023 45.4042 9.6709C45.525 9.23234 45.3672 8.73861 45.4989 8.32552C45.6369 7.9535 45.8243 7.60307 46.0559 7.2843V7.2843Z" fill="#464353"/>
<path d="M47.7942 17.265C47.7736 17.3681 47.7841 17.4752 47.8244 17.572C47.8652 17.6378 47.9207 17.6927 47.9863 17.7318C48.4477 18.0282 48.9724 18.2035 49.5147 18.2425C49.5885 18.2438 49.6609 18.2632 49.726 18.2991C49.8549 18.3868 49.8632 18.5821 49.8151 18.7377C49.7511 18.8845 49.7179 19.0436 49.7177 19.2045C49.7575 19.5002 50.0978 19.6289 50.3845 19.6728C50.7865 19.7251 51.2269 19.6983 51.5452 19.4394C51.7608 19.2366 51.9252 18.9826 52.024 18.6995C52.8115 16.8335 53.0873 14.7709 53.8844 12.9105C53.9448 12.7891 53.9852 12.6581 54.0038 12.5229C54.0122 12.4553 54.0029 12.3865 53.9769 12.3238C53.9508 12.2611 53.9089 12.2068 53.8556 12.1664C53.7074 12.0716 53.477 12.1254 53.3768 11.9768C53.3274 11.9019 53.3329 11.8 53.289 11.7208C53.1971 11.5524 52.9556 11.5793 52.791 11.4817C52.662 11.411 52.5728 11.2652 52.4288 11.2369C52.358 11.2328 52.2874 11.2458 52.2223 11.2747C52.1573 11.3037 52.0998 11.3479 52.0542 11.4039C51.5864 11.8538 51.3408 12.4918 51.0801 13.0944C50.6821 14.0182 50.2161 14.9093 49.6862 15.7597C49.7479 15.6607 49.3898 14.9109 49.2499 14.8784C49.0043 14.8274 48.6901 15.2717 48.557 15.4372C48.1394 15.9593 47.8748 16.5933 47.7942 17.265V17.265Z" fill="#6C63FF"/>
<path opacity="0.1" d="M52.7785 11.6132C52.68 11.6149 52.5831 11.6395 52.495 11.685C52.4068 11.7306 52.3298 11.796 52.2695 11.8764C52.1227 12.073 52.0939 12.3333 52.0569 12.5837C51.932 13.377 51.6574 14.1374 51.2488 14.8218" fill="black"/>
<path opacity="0.1" d="M53.4784 12.1777C53.3424 12.1809 53.2095 12.2205 53.0928 12.2927C52.9761 12.3649 52.8797 12.4671 52.813 12.5894C52.7222 12.8119 52.6657 13.0478 52.6456 13.2883C52.528 13.8216 52.3011 14.3227 51.9802 14.7582" fill="black"/>
<path d="M86.0846 39.835V38.078C86.0842 36.7845 85.5857 35.5442 84.6985 34.6297C83.8114 33.7152 82.6084 33.2015 81.354 33.2015H14.0599C12.8055 33.2015 11.6025 33.7152 10.7154 34.6297C9.82827 35.5442 9.32971 36.7845 9.32935 38.078V41.3176L86.0846 39.835Z" fill="#33323D"/>
<path d="M32.7807 31.1418C32.7807 31.1418 32.5886 43.4298 34.7014 47.4731C36.8143 51.5163 37.7198 69.1052 37.7198 69.1052C37.7198 69.1052 59.869 71.4677 75.3037 66.2758C90.7385 61.0839 123.581 58.9604 123.581 58.9604L118.046 20.4962C118.046 20.4962 90.7042 18.6882 75.1501 26.3375C59.596 33.9867 32.7807 31.1418 32.7807 31.1418Z" fill="#8DD070"/>
<path opacity="0.1" d="M32.7807 31.1418C32.7807 31.1418 32.5886 43.4298 34.7014 47.4731C36.8143 51.5163 37.7198 69.1052 37.7198 69.1052C37.7198 69.1052 59.869 71.4677 75.3037 66.2758C90.7385 61.0839 123.581 58.9604 123.581 58.9604L118.046 20.4962C118.046 20.4962 90.7042 18.6882 75.1501 26.3375C59.596 33.9867 32.7807 31.1418 32.7807 31.1418Z" fill="black"/>
<path d="M37.6827 35.6306C37.6827 35.6306 36.9899 45.7697 38.7282 49.0094C40.4664 52.249 40.5474 66.7115 40.5474 66.7115C40.5474 66.7115 60.4809 67.665 74.6602 62.6881C88.8396 57.7112 118.636 54.4828 118.636 54.4828L115.25 23.027C115.25 23.027 90.5958 22.7653 76.2065 29.7709C61.8172 36.7765 37.6827 35.6306 37.6827 35.6306Z" fill="#8DD070"/>
<path opacity="0.1" d="M75.9876 56.9288C78.8238 56.5645 80.5088 51.1845 79.7511 44.9121C78.9935 38.6397 76.08 33.8503 73.2438 34.2145C70.4076 34.5788 68.7226 39.9589 69.4803 46.2312C70.238 52.5036 73.1514 57.2931 75.9876 56.9288Z" fill="black"/>
<path opacity="0.2" d="M103.056 1.75848C103.056 1.75848 76.4933 8.6905 63.9671 20.8923C51.4409 33.094 25.0715 38.8717 25.0715 38.8717C25.0715 38.8717 28.5454 50.6264 31.7586 53.8066C34.9717 56.9869 41.066 73.4426 41.066 73.4426C41.066 73.4426 62.8489 68.6808 75.9925 58.8514C89.136 49.0221 119.768 36.6081 119.768 36.6081L103.056 1.75848Z" fill="black"/>
<path d="M24.6724 37.1118C24.6724 37.1118 28.1448 48.8679 31.3553 52.0482C34.5657 55.2284 40.6628 71.6827 40.6628 71.6827C40.6628 71.6827 62.4484 66.9223 75.5933 57.093C88.7382 47.2636 119.368 34.8539 119.368 34.8539L102.656 0C102.656 0 76.094 6.93202 63.5679 19.1338C51.0418 31.3356 24.6724 37.1118 24.6724 37.1118Z" fill="#8DD070"/>
<path opacity="0.1" d="M24.6724 37.1118C24.6724 37.1118 28.1448 48.8679 31.3553 52.0482C34.5657 55.2284 40.6628 71.6827 40.6628 71.6827C40.6628 71.6827 62.4484 66.9223 75.5933 57.093C88.7382 47.2636 119.368 34.8539 119.368 34.8539L102.656 0C102.656 0 76.094 6.93202 63.5679 19.1338C51.0418 31.3356 24.6724 37.1118 24.6724 37.1118Z" fill="black"/>
<path d="M30.6692 39.8337C30.6692 39.8337 33.0276 49.704 35.6467 52.2363C38.2658 54.7686 42.6438 68.5054 42.6438 68.5054C42.6438 68.5054 61.8981 63.104 73.9126 53.8802C85.927 44.6564 113.328 32.1688 113.328 32.1688L100.746 3.29202C100.746 3.29202 77.2039 10.8423 65.5929 22.0637C53.9818 33.285 30.6692 39.8337 30.6692 39.8337Z" fill="#8DD070"/>
<path opacity="0.1" d="M73.4684 47.9835C76.0593 46.7394 76.062 41.0857 73.4743 35.3557C70.8865 29.6257 66.6884 25.9891 64.0974 27.2332C61.5064 28.4773 61.5038 34.131 64.0915 39.861C66.6792 45.5911 70.8774 49.2276 73.4684 47.9835Z" fill="black"/>
<path opacity="0.1" d="M87.9012 41.5596V90.3667C87.9012 90.921 87.7953 91.4698 87.5895 91.9819C87.3837 92.494 87.0822 92.9593 86.702 93.3512C86.3218 93.7431 85.8705 94.0539 85.3738 94.2659C84.8771 94.4779 84.3447 94.5869 83.8072 94.5867H13.4247C12.3395 94.5863 11.2989 94.1415 10.5317 93.3502C9.76449 92.5588 9.3335 91.4856 9.3335 90.3667V36.6392C11.3503 37.4117 11.3503 37.4117 13.4247 37.3466H83.8072C84.8915 37.3466 85.9316 37.7902 86.6992 38.58C87.4667 39.3699 87.899 40.4414 87.9012 41.5596V41.5596Z" fill="black"/>
<path d="M87.9012 42.1806V90.9877C87.9008 92.1071 87.4693 93.1804 86.7016 93.9718C85.9338 94.7632 84.8927 95.2078 83.8072 95.2078H13.4247C12.3395 95.2074 11.2989 94.7626 10.5317 93.9712C9.76449 93.1799 9.3335 92.1067 9.3335 90.9877V37.2589C11.3503 38.0299 11.3503 38.0299 13.4247 37.9663H83.8072C84.8918 37.9663 85.9321 38.41 86.6996 39.2002C87.4672 39.9903 87.8993 41.0623 87.9012 42.1806V42.1806Z" fill="#504F60"/>
<path opacity="0.1" d="M87.7009 60.2251V75.8335H73.0208C71.0311 75.8059 69.132 74.9715 67.7345 73.5109C66.337 72.0503 65.5535 70.0811 65.5535 68.0293C65.5535 65.9775 66.337 64.0082 67.7345 62.5477C69.132 61.0871 71.0311 60.2527 73.0208 60.2251H87.7009Z" fill="black"/>
<path d="M87.9011 59.8092V75.4204H73.221C71.2313 75.3928 69.3322 74.5584 67.9347 73.0978C66.5372 71.6373 65.7537 69.668 65.7537 67.6162C65.7537 65.5644 66.5372 63.5952 67.9347 62.1346C69.3322 60.674 71.2313 59.8396 73.221 59.812L87.9011 59.8092Z" fill="#33323D"/>
<path opacity="0.1" d="M73.925 71.073C75.5549 71.073 76.8761 69.7106 76.8761 68.03C76.8761 66.3494 75.5549 64.987 73.925 64.987C72.2951 64.987 70.9739 66.3494 70.9739 68.03C70.9739 69.7106 72.2951 71.073 73.925 71.073Z" fill="black"/>
<path d="M74.1252 70.6599C75.7551 70.6599 77.0763 69.2975 77.0763 67.6169C77.0763 65.9363 75.7551 64.5739 74.1252 64.5739C72.4953 64.5739 71.1741 65.9363 71.1741 67.6169C71.1741 69.2975 72.4953 70.6599 74.1252 70.6599Z" fill="#6C63FF"/>
<path d="M113.383 59.6748C113.5 60.9777 112.543 62.2425 112.822 63.5185C112.882 63.7916 112.996 64.049 113.037 64.3249C113.153 65.0832 112.715 65.8004 112.296 66.4342L108.702 71.8723C108.558 72.1114 108.386 72.3309 108.189 72.5259C107.503 73.1569 106.471 73.0918 105.568 73.2799C104.934 73.4128 104.334 73.686 103.812 74.0807C103.79 74.0999 103.776 74.1271 103.773 74.1565C103.77 74.186 103.778 74.2155 103.796 74.2391C103.945 74.4486 104.143 74.6162 104.371 74.7267C104.599 74.8371 104.85 74.8869 105.102 74.8715C105.196 75.0002 105.102 75.1884 104.965 75.2803C104.771 75.4218 104.506 75.4557 104.468 75.7924C104.454 75.91 104.477 76.0289 104.534 76.132C104.679 76.3607 104.904 76.5225 105.162 76.5833C106.407 76.9751 107.751 76.2862 108.683 75.3482C109.614 74.4103 110.282 73.2262 111.196 72.2713C111.702 71.7436 112.277 71.2909 112.799 70.7788C113.839 69.7573 114.647 68.5152 115.427 67.2717C115.662 66.8968 115.898 66.512 115.997 66.0777C116.095 65.6434 116.049 65.2048 116.16 64.7847C116.305 64.2329 116.696 63.7944 117.022 63.3318C117.66 62.4264 118.085 61.3187 118.001 60.2039C117.917 59.0891 117.247 57.9871 116.226 57.6079C115.909 57.4769 115.56 57.4551 115.231 57.5457C114.813 57.6787 114.504 58.0352 114.219 58.3761L113.533 59.1896C113.362 59.368 113.226 59.5796 113.135 59.812C113.091 59.9287 113.08 60.056 113.105 60.1787C113.129 60.3014 113.187 60.4142 113.272 60.5038" fill="#FBBEBE"/>
<path opacity="0.05" d="M113.383 59.6748C113.5 60.9777 112.543 62.2425 112.822 63.5185C112.882 63.7916 112.996 64.049 113.037 64.3249C113.153 65.0832 112.715 65.8004 112.296 66.4342L108.702 71.8723C108.558 72.1114 108.386 72.3309 108.189 72.5259C107.503 73.1569 106.471 73.0918 105.568 73.2799C104.934 73.4128 104.334 73.686 103.812 74.0807C103.79 74.0999 103.776 74.1271 103.773 74.1565C103.77 74.186 103.778 74.2155 103.796 74.2391C103.945 74.4486 104.143 74.6162 104.371 74.7267C104.599 74.8371 104.85 74.8869 105.102 74.8715C105.196 75.0002 105.102 75.1884 104.965 75.2803C104.771 75.4218 104.506 75.4557 104.468 75.7924C104.454 75.91 104.477 76.0289 104.534 76.132C104.679 76.3607 104.904 76.5225 105.162 76.5833C106.407 76.9751 107.751 76.2862 108.683 75.3482C109.614 74.4103 110.282 73.2262 111.196 72.2713C111.702 71.7436 112.277 71.2909 112.799 70.7788C113.839 69.7573 114.647 68.5152 115.427 67.2717C115.662 66.8968 115.898 66.512 115.997 66.0777C116.095 65.6434 116.049 65.2048 116.16 64.7847C116.305 64.2329 116.696 63.7944 117.022 63.3318C117.66 62.4264 118.085 61.3187 118.001 60.2039C117.917 59.0891 117.247 57.9871 116.226 57.6079C115.909 57.4769 115.56 57.4551 115.231 57.5457C114.813 57.6787 114.504 58.0352 114.219 58.3761L113.533 59.1896C113.362 59.368 113.226 59.5796 113.135 59.812C113.091 59.9287 113.08 60.056 113.105 60.1787C113.129 60.3014 113.187 60.4142 113.272 60.5038" fill="black"/>
<path d="M116.104 93.2173C115.319 93.7111 114.341 93.7408 113.428 93.6262C113.281 93.6078 113.107 93.5965 113.017 93.7139C112.879 93.8836 113.041 94.1383 113.209 94.2699C113.747 94.6865 114.379 94.9548 115.046 95.0494C115.641 95.1364 116.242 95.1775 116.843 95.1724C118.489 95.2021 120.136 95.2304 121.756 94.9871C121.852 94.9796 121.946 94.9517 122.03 94.9051C122.135 94.8294 122.208 94.7156 122.234 94.5868C122.345 94.151 122.131 93.6842 121.807 93.3814C121.483 93.0787 121.067 92.9103 120.661 92.7476L119.234 92.1747C118.9 92.0403 118.363 91.6838 118 91.7121C117.316 91.763 116.67 92.875 116.104 93.2173Z" fill="#3F3D56"/>
<path opacity="0.05" d="M116.104 93.2173C115.319 93.7111 114.341 93.7408 113.428 93.6262C113.281 93.6078 113.107 93.5965 113.017 93.7139C112.879 93.8836 113.041 94.1383 113.209 94.2699C113.747 94.6865 114.379 94.9548 115.046 95.0494C115.641 95.1364 116.242 95.1775 116.843 95.1724C118.489 95.2021 120.136 95.2304 121.756 94.9871C121.852 94.9796 121.946 94.9517 122.03 94.9051C122.135 94.8294 122.208 94.7156 122.234 94.5868C122.345 94.151 122.131 93.6842 121.807 93.3814C121.483 93.0787 121.067 92.9103 120.661 92.7476L119.234 92.1747C118.9 92.0403 118.363 91.6838 118 91.7121C117.316 91.763 116.67 92.875 116.104 93.2173Z" fill="black"/>
<path d="M117.104 73.686C116.51 74.5009 115.895 75.4416 116.042 76.4503C116.121 76.9935 116.416 77.4731 116.633 77.9753C116.927 78.6572 117.08 79.39 117.231 80.12C117.454 81.1867 117.677 82.2562 117.813 83.3399C117.968 84.5636 117.239 88.1046 117.172 89.3368C117.156 89.6339 117.122 89.955 116.921 90.1686C116.843 90.2535 116.739 90.3214 116.703 90.4318C116.682 90.5381 116.699 90.6486 116.751 90.743C117.086 91.5211 117.77 92.1011 118.535 92.4321C119.299 92.7632 121.141 93.3347 121.974 93.3644C122.084 93.3769 122.195 93.3619 122.298 93.3206C122.409 93.2509 122.496 93.1476 122.548 93.0249C123.144 91.8479 122.571 87.6632 122.579 86.3348C122.587 85.2271 122.841 84.1265 122.795 83.0202C122.756 82.1317 122.52 81.2631 122.442 80.3775C122.305 78.926 122.563 77.4675 122.822 76.033C123.02 74.9323 123.219 73.8317 123.472 72.7452C123.627 72.0817 123.807 71.4126 124.158 70.8368C124.433 70.3798 124.818 69.9979 125.138 69.5636C126.025 68.364 126.419 66.8529 126.236 65.3562C126.216 65.2148 124.178 65.8896 123.998 65.9702C123.264 66.2904 122.59 66.7378 122.003 67.293C121.531 67.757 121.159 68.3766 120.746 68.8958C120.162 69.6305 119.585 70.3704 119.015 71.1155C118.365 71.9671 117.727 72.824 117.104 73.686Z" fill="#464353"/>
<path opacity="0.05" d="M117.104 73.6365C116.51 74.4513 115.895 75.3935 116.042 76.4008C116.121 76.9454 116.416 77.425 116.633 77.9272C116.927 78.6077 117.08 79.3419 117.231 80.0705C117.454 81.1386 117.677 82.2081 117.813 83.2904C117.968 84.5155 117.239 88.0551 117.172 89.2873C117.156 89.5843 117.122 89.9069 116.921 90.1205C116.843 90.204 116.739 90.2719 116.703 90.3822C116.682 90.4886 116.699 90.5991 116.751 90.6935C117.086 91.473 117.77 92.0516 118.535 92.3911C119.299 92.7306 121.141 93.0263 121.974 93.0546C122.084 93.0671 122.195 93.052 122.298 93.0107C122.409 92.9419 122.496 92.839 122.548 92.7165C123.144 91.5395 122.571 87.6236 122.579 86.2938C122.587 85.1846 122.841 84.0854 122.795 82.9777C122.756 82.0893 122.52 81.2207 122.442 80.3365C122.305 78.8836 122.563 77.425 122.822 75.9905C123.02 74.8913 123.219 73.7907 123.472 72.7028C123.627 72.0393 123.807 71.3701 124.158 70.7943C124.433 70.3374 124.818 69.9554 125.138 69.5211C126.025 68.3217 126.42 66.8104 126.236 65.3138C126.216 65.1723 124.178 65.8471 123.998 65.9278C123.265 66.249 122.59 66.6968 122.003 67.2519C121.531 67.7145 121.159 68.3342 120.746 68.8534C120.162 69.5881 119.585 70.3284 119.015 71.0744C118.365 71.9195 117.727 72.7735 117.104 73.6365Z" fill="black"/>
<path d="M110.494 55.7391C112.333 55.7391 113.823 54.2019 113.823 52.3056C113.823 50.4094 112.333 48.8722 110.494 48.8722C108.655 48.8722 107.164 50.4094 107.164 52.3056C107.164 54.2019 108.655 55.7391 110.494 55.7391Z" fill="#FBBEBE"/>
<path d="M113.493 52.1614C113.8 52.6674 114.204 53.1043 114.679 53.446C115.154 53.7877 115.69 54.0273 116.257 54.1504L116.006 55.0912C115.573 56.7068 115.086 58.4158 113.875 59.5362C114.013 58.9887 113.837 58.4044 113.538 57.9291C113.239 57.4538 112.819 57.0803 112.407 56.711L110.491 54.9993C110.435 54.9528 110.389 54.8962 110.354 54.8323C110.306 54.7116 110.306 54.5767 110.354 54.456C110.598 53.6723 111.295 53.1828 111.863 52.6537C112.148 52.3801 112.402 52.0745 112.621 51.7426C113.004 51.1796 113.242 51.7455 113.493 52.1614Z" fill="#FBBEBE"/>
<path d="M106.107 48.8538L106.032 48.2087C106.557 48.3502 107.057 47.889 107.393 47.4122C107.729 46.9355 108.041 46.3738 108.552 46.1743C109.174 45.9338 109.832 46.3158 110.426 46.6384C111.091 47.0189 111.821 47.2639 112.576 47.3599C112.697 47.364 112.816 47.384 112.932 47.4193C113.319 47.5608 113.502 48.0616 113.559 48.5157C113.615 48.9698 113.6 49.4522 113.79 49.8568C113.928 50.1638 114.183 50.3916 114.339 50.6943C114.751 51.5063 114.353 52.6169 114.782 53.4134L113.715 52.4047C113.618 52.3127 113.48 52.2165 113.372 52.2943C113.287 52.3566 113.28 52.491 113.246 52.5985C113.143 52.9125 112.761 53.0059 112.486 52.8814C112.21 52.7569 112.008 52.4867 111.8 52.2406C111.328 51.6662 110.765 51.1612 110.107 50.9164C109.818 50.8051 109.51 50.7584 109.202 50.7794C108.895 50.8004 108.595 50.8886 108.323 51.0381C107.825 51.3281 107.46 52.0043 106.85 52.0284C106.013 52.0609 105.664 50.4538 105.277 49.8186C105.419 49.7088 105.519 49.551 105.559 49.3731C105.599 49.1951 105.577 49.0083 105.497 48.8453C105.553 48.8212 106.095 48.7548 106.107 48.8538Z" fill="#464353"/>
<path d="M64.922 28.7806C64.6545 29.026 64.4071 29.2938 64.1825 29.5813C63.9564 29.8728 63.8361 30.2366 63.8423 30.6098C63.8435 30.718 63.877 30.8233 63.9383 30.9111C63.9696 30.9532 64.0129 30.9841 64.0621 30.9996C64.1113 31.0151 64.1639 31.0143 64.2127 30.9974C64.2678 30.9685 64.315 30.9256 64.3499 30.8729C64.4949 30.6933 64.6488 30.5214 64.8109 30.358C64.8699 30.2972 64.9481 30.2335 65.0277 30.2561C65.0633 30.2692 65.0954 30.291 65.121 30.3198C65.2133 30.4021 65.2805 30.5102 65.3144 30.631C65.3624 30.8475 65.2403 31.0639 65.1017 31.2337C64.9632 31.4035 64.7999 31.5661 64.7437 31.7798C64.7224 31.8362 64.7224 31.8988 64.7437 31.9552C64.7702 31.996 64.8073 32.0283 64.8507 32.0486C65.0472 32.1601 65.265 32.2258 65.4888 32.2409C65.7126 32.2561 65.9369 32.2204 66.1458 32.1363C66.4202 32.0217 66.6644 31.825 66.9471 31.7232C67.0694 31.6886 67.1881 31.6412 67.301 31.5817C67.3819 31.5262 67.4513 31.4548 67.5052 31.3715C67.5591 31.2882 67.5965 31.1947 67.6152 31.0965C67.6509 30.9001 67.6578 30.6994 67.6358 30.5009C67.6016 29.7324 67.442 28.9753 67.1638 28.2614C67.1477 28.2154 67.1203 28.1744 67.0843 28.1426C67.043 28.1166 66.9954 28.1034 66.9471 28.1044C66.5958 28.0662 66.0196 27.8809 65.6807 28.0153C65.5622 28.0823 65.4599 28.1761 65.3816 28.2897C65.3185 28.3619 64.922 28.6858 64.922 28.7806Z" fill="#A1616A"/>
<path d="M64.8108 28.4609C64.8108 28.1157 64.3993 27.2825 65.0537 27.2273C65.0537 26.8581 64.5474 26.6289 64.6421 26.237C64.6723 26.1069 64.7793 26.0008 64.7916 25.8678C64.8328 25.4901 64.1715 25.2849 64.2813 24.9228C64.3224 24.7813 64.4679 24.6993 64.4994 24.5592C64.5735 24.2324 64.0069 24.0867 63.9959 23.7514C63.9959 23.6382 64.0576 23.5321 64.0521 23.419C64.0521 23.2775 63.9328 23.17 63.8669 23.0469C63.6954 22.7314 63.7791 22.2433 63.4663 22.0806C63.6735 22.099 63.7407 21.7821 63.6556 21.5883C63.5706 21.3945 63.3963 21.2262 63.395 21.0111C63.4052 20.9332 63.4052 20.8542 63.395 20.7763C63.3374 20.5698 63.0094 20.5528 62.9546 20.3519C62.9475 20.2748 62.9452 20.1973 62.9477 20.1199C62.9258 19.96 62.7666 19.8582 62.6171 19.8129C62.4617 19.7857 62.3122 19.7306 62.1753 19.6502C62.0792 19.5752 61.9681 19.4507 61.8652 19.5087C61.8268 19.5328 61.8076 19.578 61.7788 19.612C61.6553 19.7605 61.4193 19.6955 61.2643 19.5865C60.806 19.2654 60.5783 18.6896 60.4809 18.128C60.3835 17.5663 60.3862 16.9863 60.2641 16.4303C60.2269 16.2571 60.1773 16.0869 60.1159 15.9211C60.0638 15.7796 59.8964 15.5575 59.8854 15.4146C59.8608 15.0892 60.5138 15.3113 60.7621 15.3439C61.0032 15.3681 61.2416 15.4155 61.4742 15.4853C61.7224 15.582 61.9656 15.6921 62.2027 15.815C63.1933 16.2662 64.3897 16.3214 65.1854 17.0797C65.4475 17.3287 65.6683 17.6555 66.0086 17.7687C66.1646 17.7995 66.3186 17.8406 66.4696 17.8917C66.8469 18.0742 66.9059 18.5906 67.1117 18.9641C67.1764 19.0627 67.2328 19.1668 67.2804 19.2753C67.3201 19.4032 67.3386 19.5371 67.3353 19.6714L67.3641 20.6518C67.4108 22.2943 67.4574 23.941 67.2873 25.5735C67.2324 26.1125 67.1501 26.6671 67.3051 27.1849C67.3463 27.3263 67.4039 27.4593 67.4423 27.6022C67.4762 27.7697 67.4937 27.9404 67.4944 28.1115L67.5164 28.7467C67.524 28.7961 67.5132 28.8466 67.4862 28.8882C67.4633 28.9074 67.4365 28.921 67.4077 28.9281C67.379 28.9352 67.3491 28.9356 67.3202 28.9292C66.4627 28.85 65.5956 28.352 64.7862 28.6533" fill="#464353"/>
<path d="M103.942 77.2679C109.546 77.2679 114.089 76.5909 114.089 75.7556C114.089 74.9204 109.546 74.2433 103.942 74.2433C98.3382 74.2433 93.7952 74.9204 93.7952 75.7556C93.7952 76.5909 98.3382 77.2679 103.942 77.2679Z" fill="#504F60"/>
<path d="M112.672 75.8292C112.494 75.0413 112.383 74.3495 112.383 74.3495C112.383 74.3495 112.424 73.4922 112.051 72.8485V72.6334V71.049C112.157 70.7613 112.287 70.4834 112.439 70.2186C112.713 69.7206 112.439 67.8956 112.439 67.8956C112.439 67.8956 111.414 65.3223 111.662 63.6897C111.911 62.0572 109.558 56.4408 109.558 56.4408C109.572 55.8992 109.646 55.361 109.779 54.8365C109.804 54.7263 109.814 54.613 109.809 54.4998C109.809 54.4857 109.809 54.473 109.809 54.4588C109.809 54.4447 109.809 54.4673 109.809 54.4715C109.773 53.395 108.947 51.3776 108.947 51.3776L109.058 47.5325C109.058 47.5325 109.585 45.2689 108.726 42.2203C108.426 41.1578 108.234 40.3076 108.112 39.6512C108.098 39.5776 108.084 39.5097 108.073 39.4376C109.842 39.1546 111.193 38.9283 111.193 38.9283C111.193 38.9283 110.167 34.5017 109.474 33.7264C108.781 32.9512 108.227 30.5165 108.227 30.5165C108.227 30.5165 107.866 27.3914 108.449 26.4775C109.032 25.5636 109.115 23.9876 109.115 23.9876C109.115 23.9876 110.444 22.9973 110.611 22.5489C110.779 22.1004 111.055 21.1101 111.055 20.5853C111.055 20.0604 110.889 19.595 110.943 19.3121C110.998 19.0291 110.555 17.9837 110.777 17.4857C110.835 17.3327 110.865 17.1702 110.865 17.0061C110.866 17.0014 110.866 16.9967 110.865 16.992C110.865 16.992 110.865 16.992 110.865 16.992C110.867 16.5562 110.828 16.1212 110.749 15.6933C110.364 15.3584 109.915 15.1111 109.432 14.9675L109.403 14.8487L109.327 14.5375C109.285 14.5088 109.242 14.4823 109.197 14.4582V14.3451L109.185 13.8952L109.393 12.8851C109.805 11.128 107.529 10.8663 107.529 10.8663C107.391 10.5968 107.161 10.3893 106.884 10.2835C106.427 10.1179 106.808 12.9261 107.021 13.1129C107.182 13.2543 107.678 14.1286 107.918 14.5615L107.957 14.6322C107.919 14.6671 107.884 14.7049 107.852 14.7454L107.939 15.3552L107.953 15.4485C107.802 15.6417 107.679 15.8567 107.589 16.0866C107.589 16.0866 108.001 16.5562 107.922 17.0768C107.844 17.5974 108.05 18.2581 108.06 18.2935C108.035 18.2638 107.743 17.9384 107.45 18.0176C107.158 18.0968 106.342 18.3501 106.342 18.3501C106.342 18.3501 105.733 18.4604 105.793 18.5991C105.853 18.7377 105.382 19.346 105.382 19.346L103.743 17.7446C103.727 17.6965 103.709 17.6484 103.695 17.6031C103.628 17.3722 103.583 17.1354 103.558 16.8958C103.737 16.852 103.912 16.7948 104.082 16.7246C104.254 16.6636 104.41 16.5608 104.535 16.4247C104.701 16.2224 104.733 15.9479 104.8 15.6961C104.929 15.2038 105.211 14.7666 105.408 14.2984C105.74 13.5071 105.847 12.6347 105.716 11.783C105.691 11.5206 105.605 11.2682 105.465 11.0474C105.198 10.6683 104.712 10.5141 104.359 10.2113C104.007 9.90857 103.779 9.44596 103.367 9.22102C102.996 9.01589 102.544 9.03994 102.124 9.11068C101.304 9.25009 100.517 9.54561 99.8017 9.98213C99.563 10.1236 99.2995 10.2976 99.0251 10.2453C98.7892 10.2014 98.6135 10.0076 98.4654 9.82085C98.467 9.81312 98.4693 9.80555 98.4722 9.79822C98.4655 9.79133 98.4596 9.78374 98.4544 9.77558C98.2808 10.1729 98.1937 10.6046 98.1992 11.0403C98.1992 11.1082 98.1992 11.1818 98.2074 11.2426V11.3134C98.2074 11.3332 98.2074 11.353 98.2074 11.3714C98.2074 11.4015 98.2032 11.4315 98.1951 11.4605C98.1605 11.547 98.1081 11.6248 98.0414 11.6883C97.9911 11.7472 97.9452 11.8101 97.9042 11.8764C97.9042 11.8538 97.9179 11.8311 97.9262 11.8071C97.8215 11.9646 97.7625 12.1496 97.7561 12.3404C97.7484 12.4793 97.7926 12.616 97.8795 12.7224C97.9616 12.8046 98.0512 12.8786 98.1471 12.9431C98.1145 13.1298 98.0979 13.3192 98.0977 13.509C98.1008 14.0715 98.2446 14.6237 98.5152 15.1122C98.7858 15.6007 99.1741 16.0089 99.6425 16.2973C99.6617 16.344 99.6796 16.3921 99.6974 16.4388C99.9073 17.0047 100.065 17.6696 99.9951 18.2779C99.9951 18.3218 99.9828 18.367 99.9759 18.4109C99.9691 18.4548 99.9348 18.4576 99.9169 18.4816C99.9169 18.4816 97.21 18.5099 96.5734 17.9158C95.9368 17.3216 94.9655 19.3686 94.9655 19.3686C94.9655 19.3686 93.9955 19.5625 93.8007 19.3686C93.6058 19.1748 92.4712 19.3418 92.4712 19.3418C92.0063 18.9155 91.4014 18.6878 90.7796 18.7052C90.4028 18.4099 89.987 18.1717 89.5448 17.9978V17.9978L89.5146 17.9865C89.3194 17.9131 89.1108 17.8861 88.9041 17.9073C88.9041 17.9073 87.5732 16.7755 87.185 16.1644C86.7967 15.5532 84.9487 13.2968 84.9404 13.2869V13.1779L84.9198 12.8497C84.8649 12.8586 84.8094 12.8633 84.7538 12.8639C84.7442 12.8313 84.7305 12.7931 84.7168 12.7493C84.6103 12.4291 84.4791 12.1183 84.3244 11.8198C84.3244 11.8198 84.3244 11.4053 84.441 11.3006C84.5576 11.1959 84.393 9.67514 84.393 9.67514C84.393 9.67514 83.1939 6.78491 82.1196 8.94233C82.1196 8.94233 80.0891 10.3386 81.7931 11.9655C81.7931 11.9655 82.4791 12.3051 82.5696 12.5739C82.6328 12.7479 82.8633 13.2359 83.0183 13.5641L83.0883 13.7056L83.069 13.7226L83.0937 13.9942L83.1047 14.0989C82.7837 14.2871 82.5655 14.4738 82.619 14.6139C82.7136 14.8535 82.7785 15.1045 82.8125 15.3608C82.8125 15.3608 85.1695 18.4052 85.4741 19.7053C85.4741 19.7053 91.7948 23.5788 93.8734 23.8547L93.5057 25.7857C93.4521 26.3097 93.4246 26.8362 93.4234 27.3631C93.4508 27.7776 93.1737 29.6592 93.1737 29.6592C93.1737 29.6592 92.8128 32.4263 92.5082 32.8139C92.2037 33.2016 92.2585 34.861 92.2585 34.861C92.1866 35.6554 92.0489 36.442 91.847 37.2122C91.5424 38.2634 91.7633 39.5649 91.7633 39.5649C91.7633 39.5649 90.711 42.0547 93.2327 40.367C93.2327 40.367 94.4674 40.2878 95.897 40.2369C95.897 40.285 95.897 40.3345 95.897 40.3783C95.897 40.5679 95.897 40.773 95.8874 40.9881C95.8682 42.4141 95.86 44.3833 95.9231 45.8659C96.0342 48.4945 96.8108 53.6963 96.8108 53.6963V56.3149C96.7606 56.5605 96.7358 56.8109 96.7367 57.0619C96.7203 57.9832 96.9582 58.8904 97.4227 59.6776L97.6175 61.4205C97.6175 61.4205 98.073 62.5693 98.0812 63.2597C98.0795 63.3153 98.073 63.3707 98.062 63.4252C98.0443 63.5131 98.0369 63.6028 98.0401 63.6926C98.014 64.4848 98.4763 66.3805 98.4763 66.3805C98.4763 66.3805 98.5038 68.2889 98.7809 68.4007C99.0183 68.4954 98.464 69.4999 98.2994 69.7885C98.295 69.7708 98.2917 69.7528 98.2898 69.7347L98.2555 69.7913C98.1983 69.9458 98.169 70.1098 98.169 70.2751C98.1534 70.4054 98.174 70.5377 98.2284 70.6564C98.2828 70.7751 98.3688 70.8754 98.4763 70.9457C99.0032 71.2782 99.2858 71.554 98.8385 71.6644C98.674 71.6907 98.511 71.7261 98.3501 71.7705C98.3501 71.7493 98.3337 71.7266 98.3268 71.7068C98.2637 71.7322 98.2111 71.7793 98.1778 71.8402C98.1446 71.901 98.1327 71.9719 98.1443 72.0407C98.1486 72.2651 98.2045 72.4853 98.3076 72.683C98.7507 73.7072 99.0581 74.0977 99.0581 74.0977L99.2707 74.0736C99.2393 74.1574 99.1979 74.2368 99.1472 74.3099C99.0663 74.4285 98.9591 74.5255 98.8344 74.5928C98.7183 74.6645 98.5888 74.7103 98.4544 74.7272C98.3041 74.7322 98.1566 74.7699 98.0214 74.8376C97.8862 74.9054 97.7663 75.0018 97.6696 75.1205C97.3952 75.4897 97.2196 75.9919 97.7657 76.4333L99.7482 77.1407C99.7482 77.1407 103.159 77.5976 102.978 76.8082C102.797 76.0188 102.687 75.3284 102.687 75.3284C102.702 74.8465 102.608 74.3675 102.413 73.9293C102.377 73.8578 102.336 73.7888 102.292 73.7228L102.413 73.71C102.413 73.71 102.662 71.9657 102.994 71.6347C103.071 71.5583 103.089 71.4932 103.071 71.4536C103.105 71.3588 103.018 71.3036 102.906 71.2711L102.882 71.3404C102.773 71.316 102.662 71.3032 102.551 71.3022C102.551 71.3022 102.44 70.3897 102.801 70.0573C102.83 70.0194 102.851 69.9757 102.863 69.929C102.875 69.8822 102.878 69.8335 102.871 69.7857C102.874 69.6605 102.861 69.5354 102.832 69.4136C102.829 69.4214 102.825 69.429 102.82 69.4362C102.639 68.6072 102.024 67.2901 102.024 67.2901C102.024 67.2901 101.997 66.4611 102.219 66.1287C102.441 65.7962 102.19 61.6186 102.19 61.6186C102.19 61.6186 102.274 59.5998 102.024 58.6591C101.775 57.7183 102.329 56.6106 102.329 56.6106C102.329 56.6106 102.329 56.5893 102.329 56.5512V56.537L102.297 56.2187C102.297 56.2253 102.297 56.2319 102.297 56.2385C102.241 55.7038 102.135 54.7347 102.057 54.2876C101.946 53.651 102.086 50.6094 102.086 50.6094L102.584 49.3079L103.472 51.5502L104.414 54.538C104.414 54.538 104.881 55.169 104.892 55.8113C104.892 55.8424 104.892 55.8735 104.892 55.9046C104.884 55.9708 104.88 56.0375 104.881 56.1041C104.864 56.4816 104.964 56.8548 105.167 57.1694C105.167 57.1694 105.417 58.5841 105.805 58.9392C106.194 59.2943 106.194 59.9903 106.194 59.9903C106.194 59.9903 106.664 62.0388 106.88 62.3953C107.066 62.698 107.076 63.527 107.075 63.7859C107.075 63.8326 107.075 63.8595 107.075 63.8595C107.075 63.8595 107.14 64.5923 107.138 65.2063C107.138 65.2827 107.138 65.3562 107.138 65.4256C107.138 65.4204 107.138 65.4152 107.138 65.41C107.138 65.5777 107.118 65.7449 107.08 65.908L107.072 65.9363C107.072 65.9009 107.072 65.8669 107.081 65.833C106.985 66.2499 106.939 66.6776 106.944 67.1062C106.932 67.8419 107.04 68.7133 107.472 69.2283C108.221 70.1139 108.692 70.0035 108.692 70.0035C108.692 70.0035 108.333 71.1098 107.888 71.3319C107.871 71.3401 107.856 71.3506 107.841 71.363C107.841 71.3404 107.833 71.3192 107.83 71.298C107.781 71.3531 107.743 71.4184 107.72 71.4895C107.696 71.5607 107.687 71.6361 107.693 71.7111C107.662 72.1977 107.959 72.9843 108.242 73.3507C108.347 73.4567 108.476 73.5344 108.617 73.577C108.594 73.5933 108.571 73.608 108.547 73.6209C108.497 73.6488 108.446 73.6739 108.394 73.6959C108.322 73.7275 108.246 73.748 108.168 73.7567C108.018 73.7609 107.87 73.7981 107.734 73.8659C107.599 73.9337 107.479 74.0306 107.383 74.15C107.109 74.5178 106.933 75.02 107.479 75.4614L109.462 76.1688C109.462 76.1688 112.851 76.6172 112.672 75.8292Z" fill="url(#paint0_linear)"/>
<path d="M99.6508 77.1364L97.73 76.429C97.2004 75.9876 97.3692 75.4854 97.6367 75.1162C97.7288 74.9984 97.8443 74.9024 97.9754 74.8345C98.1065 74.7667 98.2502 74.7286 98.3968 74.7229C98.5269 74.7058 98.6518 74.66 98.7631 74.5885C98.8849 74.5203 98.9892 74.4233 99.0677 74.3056C99.2078 74.0762 99.2834 73.8113 99.2858 73.5402C99.2858 73.5402 101.393 72.9036 101.969 73.5402C102.072 73.6555 102.158 73.7856 102.225 73.9264C102.416 74.3659 102.51 74.8439 102.499 75.3256C102.499 75.3256 102.606 76.0159 102.78 76.8053C102.955 77.5947 99.6508 77.1364 99.6508 77.1364Z" fill="#2D293D"/>
<path d="M109.041 76.1603L107.12 75.4529C106.59 75.0115 106.759 74.5093 107.027 74.1415C107.118 74.0233 107.233 73.9269 107.364 73.859C107.495 73.7911 107.639 73.7533 107.785 73.7482C107.861 73.7402 107.935 73.7196 108.005 73.6874C108.056 73.6653 108.105 73.6402 108.153 73.6124C108.689 73.3082 108.676 72.5613 108.676 72.5613C108.676 72.5613 110.782 71.9247 111.359 72.5613C111.437 72.6475 111.504 72.7424 111.561 72.8442C111.922 73.4879 111.882 74.3466 111.882 74.3466C111.882 74.3466 111.989 75.0384 112.156 75.8264C112.324 76.6144 109.041 76.1603 109.041 76.1603Z" fill="#2D293D"/>
<path opacity="0.1" d="M101.971 73.5388C102.074 73.6541 102.16 73.7842 102.226 73.9251L99.0706 74.3028C99.2107 74.0735 99.2862 73.8085 99.2887 73.5374C99.2887 73.5374 101.395 72.9022 101.971 73.5388Z" fill="black"/>
<path opacity="0.1" d="M111.564 72.8471V73.4568C111.073 74.2901 108.698 74.1076 108.008 73.6902C108.058 73.6681 108.108 73.6431 108.156 73.6153C108.692 73.3111 108.678 72.5641 108.678 72.5641C108.678 72.5641 110.784 71.9275 111.362 72.5641C111.439 72.6504 111.507 72.7453 111.564 72.8471V72.8471Z" fill="black"/>
<path d="M111.938 70.2186C111.791 70.4843 111.666 70.762 111.564 71.049V73.2347C111.026 74.1472 108.237 73.843 107.859 73.3451C107.482 72.8471 107.088 71.5512 107.512 71.3263C107.936 71.1013 108.29 69.9979 108.29 69.9979C108.29 69.9979 107.833 70.1082 107.109 69.2226C106.385 68.337 106.6 66.3734 106.734 65.9038C106.869 65.4341 106.734 63.8567 106.734 63.8567C106.734 63.8567 106.762 62.749 106.548 62.3896C106.334 62.0303 105.877 59.9847 105.877 59.9847C105.877 59.9847 105.877 59.2929 105.501 58.9335C105.125 58.5742 104.884 57.1623 104.884 57.1623C104.664 56.8095 104.569 56.3891 104.616 55.9726C104.696 55.2808 104.159 54.5338 104.159 54.5338L103.247 51.5446L102.388 49.3037L101.905 50.6038C101.905 50.6038 101.768 53.6468 101.879 54.282C101.99 54.9172 102.153 56.6064 102.153 56.6064C102.153 56.6064 101.617 57.7127 101.858 58.6534C102.1 59.5942 102.012 61.6158 102.012 61.6158C102.012 61.6158 102.254 65.792 102.038 66.1244C101.823 66.4569 101.85 67.2873 101.85 67.2873C101.85 67.2873 102.948 69.7206 102.602 70.0531C102.256 70.3855 102.361 71.298 102.361 71.298C102.361 71.298 103.111 71.298 102.79 71.6304C102.469 71.9629 102.226 73.7058 102.226 73.7058L98.9813 74.0977C98.9813 74.0977 98.685 73.7115 98.2556 72.683C97.8261 71.6545 98.3351 71.7705 98.7673 71.6587C99.1995 71.547 98.9265 71.2725 98.4161 70.9401C97.9057 70.6076 98.2021 69.8607 98.2021 69.8607C98.2021 69.8607 98.98 68.5054 98.7111 68.395C98.4422 68.2847 98.4161 66.3748 98.4161 66.3748C98.4161 66.3748 97.8796 64.1113 98.0141 63.4973C98.1485 62.8834 97.5847 61.4234 97.5847 61.4234L97.3967 59.6805C96.8226 58.6915 96.6132 57.5223 96.8068 56.3871V53.6992C96.8068 53.6992 96.0549 48.4987 95.9479 45.8702C95.8793 44.1867 95.8985 41.8893 95.9205 40.4562C95.9342 39.6526 95.9479 39.1193 95.9479 39.1193L107.538 37.8743C107.538 37.8743 107.527 38.4261 107.748 39.6498C107.868 40.3062 108.053 41.1564 108.344 42.2189C109.175 45.2619 108.666 47.5297 108.666 47.5297L108.558 51.3762C108.558 51.3762 109.577 53.9481 109.363 54.8337C109.234 55.3596 109.161 55.8985 109.146 56.4408C109.146 56.4408 111.427 62.0572 111.185 63.6897C110.944 65.3223 111.936 67.8956 111.936 67.8956C111.936 67.8956 112.207 69.7206 111.938 70.2186Z" fill="#464353"/>
<path opacity="0.05" d="M105.312 55.8056L108.84 55.3203C108.84 55.3203 106.841 57.424 105.312 55.8056Z" fill="black"/>
<path opacity="0.1" d="M108.33 51.7652C108.33 51.7652 108.451 53.0526 107.687 53.5364C107.687 53.5364 109.054 53.3157 108.33 51.7652Z" fill="black"/>
<path opacity="0.1" d="M108.113 47.6711C108.113 47.6711 105.163 50.1751 104.091 49.9672C103.018 49.7592 108.113 47.6711 108.113 47.6711Z" fill="black"/>
<path opacity="0.1" d="M100.938 56.9798C100.938 56.9798 98.6973 57.5046 98.6301 58.4327C98.5628 59.3607 100.938 56.9798 100.938 56.9798Z" fill="black"/>
<path opacity="0.05" d="M101.43 68.5181C101.43 68.5181 98.2652 69.1264 99.1638 69.5409C100.062 69.9554 101.539 70.2878 101.539 70.2878C101.539 70.2878 102.561 70.343 101.43 68.5181Z" fill="black"/>
<g opacity="0.05">
<path opacity="0.05" d="M98.5244 70.2002C98.4448 70.1489 98.3774 70.0798 98.3273 69.998C98.2772 69.9162 98.2456 69.8238 98.2349 69.7277L98.202 69.7857C98.202 69.7857 97.907 70.5327 98.4174 70.8637C98.475 70.9019 98.5313 70.9401 98.582 70.9769C98.6767 70.9585 98.7782 70.9443 98.8756 70.9189C99.3078 70.8085 99.0348 70.5327 98.5244 70.2002Z" fill="black"/>
<path opacity="0.05" d="M102.602 69.9781C102.69 69.896 102.687 69.6838 102.634 69.4122C102.496 69.6258 102.457 69.9597 102.454 70.2129C102.487 70.125 102.538 70.0451 102.602 69.9781V69.9781Z" fill="black"/>
<path opacity="0.05" d="M102.115 56.2145C101.998 56.5417 101.926 56.884 101.901 57.2316C101.962 56.9915 102.044 56.7576 102.146 56.5328L102.115 56.2145Z" fill="black"/>
<path opacity="0.05" d="M109.364 54.763C109.386 54.6636 109.395 54.562 109.393 54.4602C109.353 54.6668 109.326 54.8578 109.305 55.0261C109.323 54.9398 109.342 54.8578 109.364 54.763Z" fill="black"/>
<path opacity="0.05" d="M102.04 66.0508C102.083 65.9829 102.108 65.7538 102.119 65.4355C102.02 65.6818 101.967 65.9454 101.964 66.2121C101.983 66.1554 102.008 66.1013 102.04 66.0508V66.0508Z" fill="black"/>
<path opacity="0.05" d="M102.698 71.2682C102.532 71.8232 102.408 72.3908 102.329 72.9659L99.0843 73.3521C99.0843 73.3521 98.7879 72.9659 98.3585 71.9374C98.3238 71.8579 98.2932 71.7767 98.2666 71.6941C98.0717 71.786 97.9922 71.994 98.2501 72.6009C98.6795 73.6251 98.9772 74.0156 98.9772 74.0156L102.222 73.628C102.222 73.628 102.463 71.8851 102.784 71.5526C102.949 71.3927 102.848 71.3093 102.698 71.2682Z" fill="black"/>
<path opacity="0.05" d="M98.4175 66.2998C98.4175 66.2998 98.4435 68.2083 98.7124 68.3186C98.8496 68.0031 98.9388 67.7032 98.8181 67.6537C98.5437 67.5434 98.5231 65.6335 98.5231 65.6335C98.5231 65.6335 97.9867 63.37 98.1211 62.756C98.2556 62.1421 97.6917 60.6821 97.6917 60.6821L97.5037 58.9392C96.9296 57.9501 96.7202 56.781 96.9138 55.6458V52.9578C96.9138 52.9578 96.1619 47.7574 96.0549 45.1289C95.9863 43.4454 96.0055 41.1479 96.0275 39.7148C96.0275 39.4559 96.0357 39.2268 96.0398 39.033L95.9479 39.0429C95.9479 39.0429 95.9328 39.5748 95.9205 40.3797C95.8985 41.8128 95.8779 44.1103 95.9479 45.7924C96.0549 48.4209 96.8054 53.6227 96.8054 53.6227V56.3107C96.6128 57.4456 96.8227 58.6141 97.3967 59.6027L97.5833 61.3456C97.5833 61.3456 98.1472 62.8112 98.0127 63.4209C97.8783 64.0307 98.4175 66.2998 98.4175 66.2998Z" fill="black"/>
<path opacity="0.05" d="M107.969 72.6066C107.706 72.2131 107.53 71.7642 107.455 71.2923C107.124 71.6007 107.504 72.7976 107.866 73.2729C108.241 73.7709 111.031 74.075 111.571 73.1611V72.6349C110.839 73.3748 108.323 73.0777 107.969 72.6066Z" fill="black"/>
<path opacity="0.05" d="M112.047 69.48C111.899 69.7458 111.774 70.0235 111.671 70.3105V70.7024C111.732 70.5609 111.819 70.3713 111.945 70.1478C112.03 69.93 112.07 69.6963 112.063 69.4617C112.063 69.4617 112.051 69.4744 112.047 69.48Z" fill="black"/>
<path opacity="0.05" d="M108.134 69.9172C108.236 69.7041 108.324 69.4844 108.399 69.2594C108.399 69.2594 107.942 69.3698 107.217 68.4842C106.69 67.8405 106.66 66.6238 106.736 65.8288C106.599 66.2999 106.386 68.2635 107.11 69.1491C107.584 69.7277 107.942 69.8805 108.134 69.9172Z" fill="black"/>
<path opacity="0.05" d="M106.734 63.7817C106.782 64.3268 106.8 64.8742 106.788 65.4213C106.801 65.3349 106.82 65.2494 106.843 65.1653C106.98 64.6942 106.843 63.1182 106.843 63.1182C106.843 63.1182 106.87 62.0105 106.655 61.6512C106.439 61.2918 105.991 59.2433 105.991 59.2433C105.991 59.2433 105.991 58.5516 105.615 58.1922C105.239 57.8329 104.997 56.421 104.997 56.421C104.776 56.0689 104.679 55.6486 104.723 55.2313C104.804 54.5395 104.268 53.7925 104.268 53.7925L103.355 50.8047L102.496 48.5638L102.012 49.8653C102.012 49.8653 102.012 50.0294 101.996 50.2897L102.388 49.2329L103.247 51.4696L104.159 54.4574C104.159 54.4574 104.696 55.2044 104.615 55.8962C104.57 56.3135 104.667 56.7338 104.889 57.0859C104.889 57.0859 105.131 58.5006 105.506 58.8571C105.882 59.2136 105.881 59.9083 105.881 59.9083C105.881 59.9083 106.338 61.9553 106.552 62.3132C106.766 62.6712 106.734 63.7817 106.734 63.7817Z" fill="black"/>
</g>
<path d="M108.987 12.8808L108.786 13.8909L108.798 14.3408L108.806 14.6718L107.687 14.7906L107.562 14.5516C107.33 14.1187 106.848 13.2387 106.693 13.1029C106.486 12.9247 106.117 10.1151 106.556 10.282C106.826 10.3896 107.048 10.5968 107.179 10.8634C107.179 10.8634 109.384 11.1237 108.987 12.8808Z" fill="#FFCDD3"/>
<path opacity="0.1" d="M108.806 14.6719L107.687 14.7907L107.562 14.5516C107.712 14.3748 107.918 14.2574 108.143 14.2192C108.368 14.181 108.599 14.2245 108.797 14.3422L108.806 14.6719Z" fill="black"/>
<path d="M109.089 15.2193L107.612 15.5716L107.581 15.3453L107.497 14.7355C107.497 14.7355 108.082 13.932 108.927 14.5346L109.001 14.8444L109.089 15.2193Z" fill="#6C63FF"/>
<path d="M85.1751 12.9912L83.5987 13.8626L83.4615 13.5571C83.312 13.2331 83.0884 12.745 83.0266 12.5668C82.9333 12.298 82.2762 11.9585 82.2762 11.9585C80.6298 10.333 82.5917 8.93525 82.5917 8.93525C83.6317 6.77784 84.7869 9.66807 84.7869 9.66807C84.7869 9.66807 84.9488 11.1917 84.8349 11.2936C84.721 11.3954 84.721 11.8128 84.721 11.8128C84.8713 12.1118 84.9983 12.4225 85.1011 12.7422C85.1491 12.8964 85.1751 12.9912 85.1751 12.9912Z" fill="#FFCDD3"/>
<path opacity="0.1" d="M85.175 12.9912L83.5986 13.8626L83.4614 13.557C83.6837 13.3646 84.4726 12.7082 84.7319 12.7351C84.8557 12.751 84.9807 12.7544 85.1051 12.745C85.149 12.8964 85.175 12.9912 85.175 12.9912Z" fill="black"/>
<path d="M85.3355 13.4821L83.5643 14.3818L83.5286 13.99L83.5039 13.7183C83.5039 13.7183 84.5301 12.8115 84.8334 12.8469C84.9867 12.8698 85.1424 12.8698 85.2957 12.8469L85.3163 13.1751L85.3355 13.4821Z" fill="#6C63FF"/>
<path d="M104.694 19.5908C104.694 19.5908 96.9728 20.4891 98.4161 20.0053C99.4204 19.6671 99.8196 19.015 99.9033 18.2793C99.9719 17.6668 99.8183 17.0061 99.6166 16.4402C99.4351 15.9382 99.2053 15.4562 98.9306 15.0015C98.9306 15.0015 104.83 11.6543 103.652 14.6973C103.47 15.1576 103.357 15.6437 103.317 16.1389C103.281 16.631 103.333 17.1257 103.469 17.5989C103.692 18.3666 104.116 19.0559 104.694 19.5908V19.5908Z" fill="#FFCDD3"/>
<path opacity="0.1" d="M103.648 14.6931C103.466 15.1533 103.353 15.6394 103.313 16.1346C102.757 16.617 102.148 16.5845 101.365 16.5845C100.764 16.5845 100.097 16.7345 99.6167 16.436C99.4352 15.934 99.2054 15.452 98.9307 14.9972C98.9307 14.9972 104.829 11.65 103.648 14.6931Z" fill="black"/>
<path d="M101.26 16.7967C103.023 16.7967 104.453 15.3228 104.453 13.5047C104.453 11.6866 103.023 10.2127 101.26 10.2127C99.497 10.2127 98.0676 11.6866 98.0676 13.5047C98.0676 15.3228 99.497 16.7967 101.26 16.7967Z" fill="#FFCDD3"/>
<path opacity="0.1" d="M104.694 19.5908C104.694 19.5908 96.9728 20.4891 98.4161 20.0053C99.4204 19.6672 99.8196 19.015 99.9033 18.2793C100.287 17.8549 101.06 17.5394 101.55 17.3753C102.003 17.2183 102.491 17.2099 102.949 17.3513C103.129 17.4072 103.3 17.4891 103.458 17.5946C103.683 18.3651 104.111 19.0562 104.694 19.5908V19.5908Z" fill="black"/>
<path opacity="0.1" d="M109.089 15.2193L107.612 15.5716L107.581 15.3452C107.739 15.1213 107.96 14.9531 108.214 14.8635C108.468 14.7739 108.743 14.7672 109.001 14.8444L109.089 15.2193Z" fill="black"/>
<path opacity="0.1" d="M85.3357 13.4821L83.5645 14.3818L83.5288 13.9899C84.1025 13.6719 84.6988 13.399 85.3124 13.1737L85.3357 13.4821Z" fill="black"/>
<path opacity="0.1" d="M107.748 39.6526C104.756 40.1449 100.503 40.773 99.8278 40.5608C99.2667 40.3854 97.4776 40.4038 95.9204 40.459C95.9341 39.6554 95.9479 39.1221 95.9479 39.1221L107.538 37.8771C107.538 37.8771 107.527 38.4289 107.748 39.6526Z" fill="black"/>
<path d="M110.731 38.9282C110.731 38.9282 100.884 40.6711 99.8278 40.3429C98.7714 40.0147 93.3452 40.3698 93.3452 40.3698C90.9031 42.0575 91.9225 39.5677 91.9225 39.5677C91.9225 39.5677 91.7085 38.2676 92.0034 37.2164C92.2016 36.4447 92.3369 35.6573 92.4082 34.8624C92.4082 34.8624 92.3547 33.2015 92.6496 32.8139C92.9446 32.4263 93.2945 29.6605 93.2945 29.6605C93.2945 29.6605 93.562 27.779 93.5359 27.3645C93.5099 26.95 93.6155 25.7871 93.6155 25.7871L93.9654 23.8504C91.9527 23.5745 85.835 19.7011 85.835 19.7011C85.5401 18.401 83.2598 15.3579 83.2598 15.3579C83.2266 15.1021 83.1635 14.8512 83.0719 14.611C82.9114 14.1682 85.326 13.2826 85.326 13.2826C85.326 13.2826 87.1233 15.5461 87.4992 16.1601C87.8752 16.7741 89.1621 17.903 89.1621 17.903C89.362 17.8818 89.564 17.9089 89.752 17.9822L89.7836 17.9921C90.2149 18.1667 90.6192 18.405 90.9841 18.6995C91.5891 18.6847 92.176 18.9129 92.6208 19.3361C92.6208 19.3361 93.7184 19.1691 93.9091 19.363C94.0998 19.5568 95.0355 19.363 95.0355 19.363C95.0355 19.363 95.9739 17.3159 96.5913 17.9101C97.2087 18.5042 99.8278 18.4759 99.8278 18.4759C100.176 17.9978 101.026 17.6554 101.557 17.4857C102.009 17.3293 102.498 17.3209 102.956 17.4616C103.153 17.5224 103.339 17.6181 103.505 17.7445L105.098 19.3488C105.098 19.3488 105.553 18.7391 105.5 18.6019C105.446 18.4646 106.036 18.3529 106.036 18.3529C106.036 18.3529 106.814 18.1039 107.109 18.0204C107.404 17.9369 107.674 18.2666 107.699 18.2963C107.689 18.2609 107.488 17.5889 107.562 17.0796C107.636 16.5703 107.239 16.0893 107.239 16.0893C108.178 13.7098 110.297 15.7017 110.297 15.7017C110.297 15.7017 110.539 17.0018 110.325 17.4998C110.111 17.9978 110.539 19.0489 110.485 19.3262C110.432 19.6035 110.594 20.0731 110.594 20.5994C110.594 21.1257 110.319 22.1202 110.164 22.563C110.009 23.0058 108.715 24.0018 108.715 24.0018C108.715 24.0018 108.635 25.5791 108.071 26.4916C107.507 27.4041 107.861 30.5249 107.861 30.5249C107.861 30.5249 108.397 32.9596 109.068 33.7349C109.739 34.5101 110.731 38.9282 110.731 38.9282Z" fill="#3F3D56"/>
<path opacity="0.1" d="M96.3772 20.7239C96.3772 20.7239 96.0822 19.8114 95.8133 19.7336C95.5463 19.6323 95.2864 19.5123 95.0354 19.3743L95.2083 19.0333C95.2083 19.0333 96.2153 19.3163 96.3772 19.6232C96.5391 19.9302 96.3772 20.7239 96.3772 20.7239Z" fill="black"/>
<path opacity="0.1" d="M90.9841 18.7052C90.9306 18.9881 88.542 19.23 88.542 19.23L89.7493 17.9823L89.7795 17.9936C90.2125 18.1691 90.6183 18.4088 90.9841 18.7052V18.7052Z" fill="black"/>
<path d="M84.0749 15.1288C84.1931 15.1288 84.2889 15.03 84.2889 14.9081C84.2889 14.7862 84.1931 14.6874 84.0749 14.6874C83.9567 14.6874 83.8608 14.7862 83.8608 14.9081C83.8608 15.03 83.9567 15.1288 84.0749 15.1288Z" fill="#575988"/>
<path d="M84.349 15.5716C84.4673 15.5716 84.5631 15.4728 84.5631 15.3509C84.5631 15.229 84.4673 15.1302 84.349 15.1302C84.2308 15.1302 84.135 15.229 84.135 15.3509C84.135 15.4728 84.2308 15.5716 84.349 15.5716Z" fill="#575988"/>
<path d="M84.6181 15.9804C84.7363 15.9804 84.8321 15.8816 84.8321 15.7597C84.8321 15.6378 84.7363 15.539 84.6181 15.539C84.4999 15.539 84.4041 15.6378 84.4041 15.7597C84.4041 15.8816 84.4999 15.9804 84.6181 15.9804Z" fill="#575988"/>
<path d="M84.8993 16.4218C85.0175 16.4218 85.1134 16.323 85.1134 16.2012C85.1134 16.0793 85.0175 15.9805 84.8993 15.9805C84.7811 15.9805 84.6853 16.0793 84.6853 16.2012C84.6853 16.323 84.7811 16.4218 84.8993 16.4218Z" fill="#575988"/>
<path d="M110.19 16.3568C110.287 16.3568 110.365 16.2763 110.365 16.1771C110.365 16.0779 110.287 15.9974 110.19 15.9974C110.094 15.9974 110.016 16.0779 110.016 16.1771C110.016 16.2763 110.094 16.3568 110.19 16.3568Z" fill="#575988"/>
<path d="M110.218 16.7656C110.314 16.7656 110.392 16.6852 110.392 16.5859C110.392 16.4867 110.314 16.4063 110.218 16.4063C110.121 16.4063 110.043 16.4867 110.043 16.5859C110.043 16.6852 110.121 16.7656 110.218 16.7656Z" fill="#575988"/>
<path d="M110.241 17.173C110.337 17.173 110.415 17.0926 110.415 16.9933C110.415 16.8941 110.337 16.8137 110.241 16.8137C110.145 16.8137 110.067 16.8941 110.067 16.9933C110.067 17.0926 110.145 17.173 110.241 17.173Z" fill="#575988"/>
<path opacity="0.1" d="M96.3868 28.2219C96.3607 28.1893 102.41 36.0649 107.105 31.5139C107.109 31.5153 99.6905 32.5522 96.3868 28.2219Z" fill="black"/>
<path opacity="0.1" d="M92.9158 32.3159C92.9158 32.3159 96.5351 32.4178 96.9137 33.4915V34.6091C96.8107 34.6681 96.6948 34.699 96.5769 34.699C96.459 34.699 96.3431 34.6681 96.2401 34.6091C95.8751 34.4054 93.6868 33.2595 92.9158 33.8112V32.3159Z" fill="black"/>
<path d="M92.9829 32.3159C92.9829 32.3159 96.4444 32.4135 96.8066 33.4378V34.5016C96.708 34.5581 96.597 34.5877 96.4842 34.5877C96.3714 34.5877 96.2604 34.5581 96.1618 34.5016C95.8133 34.3092 93.721 33.2157 92.9829 33.7419V32.3159Z" fill="#3F3D56"/>
<path opacity="0.1" d="M94.8914 24.2126C95.2611 25.0951 95.7324 25.9287 96.2949 26.6954C96.9067 27.5428 97.6481 28.2819 98.4901 28.8839C98.4901 28.8839 94.9517 24.7247 94.8914 24.2126Z" fill="black"/>
<path opacity="0.1" d="M93.7075 19.8765C93.7075 19.8765 94.3112 22.5644 95.867 23.4769L93.7075 19.8765Z" fill="black"/>
<path opacity="0.1" d="M92.7814 20.1481C92.7663 20.0986 92.245 22.2702 94.7873 23.4769C94.7873 23.4769 93.7075 23.0992 92.7814 20.1481Z" fill="black"/>
<path opacity="0.1" d="M108.585 18.3458C108.545 18.3458 109.839 19.1946 110.192 19.5907C110.192 19.5907 109.349 18.2892 108.585 18.3458Z" fill="black"/>
<path d="M100.397 16.4883C100.398 16.5601 100.413 16.631 100.441 16.6966C100.469 16.7622 100.511 16.8209 100.562 16.8692C100.614 16.9175 100.675 16.9542 100.741 16.977C100.807 16.9998 100.877 17.0083 100.946 17.0018C101.919 17.0641 102.933 17.1079 103.827 16.7189C103.995 16.6571 104.146 16.5542 104.266 16.419C104.425 16.2167 104.457 15.9422 104.521 15.6904C104.647 15.1981 104.916 14.7609 105.11 14.2927C105.437 13.5015 105.547 12.6327 105.427 11.7816C105.401 11.5207 105.318 11.2694 105.183 11.0474C104.925 10.6668 104.454 10.5126 104.112 10.2099C103.771 9.90712 103.551 9.44451 103.152 9.21957C102.793 9.01303 102.352 9.03849 101.947 9.10923C101.151 9.24862 100.389 9.54396 99.7002 9.97927C99.4683 10.1207 99.2145 10.2947 98.9483 10.2424C98.7151 10.1971 98.5449 9.99483 98.3995 9.80526C98.2124 10.258 98.1338 10.7505 98.1704 11.2412C98.1805 11.3132 98.1782 11.3865 98.1635 11.4576C98.13 11.5437 98.079 11.6213 98.014 11.6854C97.7739 11.9683 97.6244 12.4281 97.8617 12.7195C97.9646 12.8454 98.1238 12.9148 98.2239 13.0435C98.4036 13.2741 98.3433 13.6094 98.3392 13.9036C98.3293 14.0064 98.3545 14.1095 98.4105 14.1951C98.4624 14.245 98.5259 14.2802 98.5949 14.2973C98.6639 14.3144 98.736 14.3128 98.8043 14.2927C98.9402 14.2505 99.0829 14.2365 99.2241 14.2517C99.3728 14.3015 99.5013 14.4011 99.589 14.5346C100.032 15.1302 100.208 15.7781 100.397 16.4883Z" fill="#2D293D"/>
<g opacity="0.1">
<path opacity="0.1" d="M104.38 16.1686C104.26 16.3039 104.109 16.4068 103.941 16.4685C103.041 16.8548 102.029 16.8109 101.06 16.7515C100.956 16.7526 100.853 16.7288 100.76 16.6822C100.611 16.593 100.555 16.4063 100.51 16.2365C100.32 15.5292 100.146 14.8798 99.6962 14.2899C99.6095 14.1538 99.481 14.0517 99.3313 13.9999C99.1901 13.9862 99.0477 14.0001 98.9115 14.0409C98.8434 14.0612 98.7713 14.063 98.7023 14.0462C98.6333 14.0293 98.5698 13.9944 98.5177 13.9447C98.4617 13.8591 98.4365 13.756 98.4464 13.6533C98.4464 13.3562 98.5108 13.0238 98.3311 12.7932C98.231 12.6644 98.0718 12.5951 97.9689 12.4678C97.9018 12.3739 97.8606 12.263 97.8497 12.147C97.8389 12.0309 97.8587 11.9139 97.9072 11.8085C97.7357 12.0915 97.663 12.4466 97.8619 12.6899C97.9648 12.8158 98.124 12.8851 98.2241 13.0139C98.4038 13.2459 98.3435 13.5797 98.3393 13.874C98.3288 13.9766 98.3536 14.0797 98.4093 14.1654C98.4614 14.2155 98.5251 14.2509 98.5944 14.268C98.6636 14.2851 98.736 14.2834 98.8044 14.263C98.9404 14.2208 99.0831 14.2069 99.2243 14.222C99.373 14.2719 99.5014 14.3714 99.5892 14.5049C100.038 15.0949 100.213 15.7428 100.403 16.453C100.425 16.6277 100.51 16.7877 100.64 16.9014C100.734 16.9482 100.838 16.9714 100.942 16.9693C101.915 17.0316 102.929 17.0769 103.823 16.6864C103.991 16.6251 104.142 16.5221 104.262 16.3865C104.323 16.3068 104.369 16.2168 104.399 16.1205C104.401 16.1389 104.391 16.1545 104.38 16.1686Z" fill="black"/>
<path opacity="0.1" d="M98.1706 11.3714C98.2137 11.3231 98.2469 11.2663 98.268 11.2044C98.2804 11.1329 98.2804 11.0596 98.268 10.988C98.2413 10.5847 98.2921 10.1798 98.4176 9.79682L98.3997 9.7756C98.212 10.2276 98.1334 10.7199 98.1706 11.2101C98.1747 11.2638 98.1747 11.3177 98.1706 11.3714V11.3714Z" fill="black"/>
</g>
<path opacity="0.1" d="M99.8279 18.483C99.8279 18.483 103.816 19.0291 104.174 18.4109Z" fill="black"/>
<path opacity="0.1" d="M107.581 16.7811C107.581 16.7811 109.798 16.7811 110.285 17.6413Z" fill="black"/>
<path d="M119.985 93.196C119.327 93.8022 118.473 94.1315 117.591 94.1184C117.366 94.1184 117.054 94.1623 117.053 94.3943C117.058 94.4623 117.081 94.5277 117.119 94.5839C117.397 95.0624 117.837 95.4184 118.354 95.584C118.834 95.734 119.347 95.7085 119.848 95.6817L121.309 95.6038C121.583 95.5883 121.858 95.5741 122.132 95.5388C122.406 95.5034 122.706 95.4454 122.992 95.3973C123.697 95.294 124.409 95.2599 125.12 95.2954C125.31 95.3025 125.532 95.2954 125.644 95.154C125.757 95.0125 125.699 94.7423 125.657 94.5301C125.569 94.093 125.657 93.6346 125.576 93.196C125.438 92.4264 124.792 91.8365 124.084 91.5578C123.426 91.3003 122.26 91.0047 121.637 91.4347C120.98 91.886 120.578 92.6401 119.985 93.196Z" fill="#3F3D56"/>
<path d="M121.436 67.4118C121.565 68.0442 122.159 68.528 122.176 69.1731C122.191 69.6909 121.833 70.1252 121.575 70.568C121.332 71.0266 121.127 71.5055 120.962 71.9997C120.476 73.2863 119.873 74.5226 119.162 75.6921C118.819 76.2579 118.434 76.862 118.513 77.5198C118.567 77.8275 118.673 78.1232 118.824 78.3941L119.853 80.502C120.078 80.9229 120.255 81.3697 120.379 81.8333C120.468 82.2336 120.476 82.6481 120.528 83.0556C120.69 84.3486 121.279 85.6501 120.93 86.9035C120.9 87.0111 120.793 87.1412 120.709 87.0662C121.049 87.7212 121.322 88.3805 121.296 89.1232C121.283 89.5122 121.167 89.9183 121.306 90.2804C121.365 90.4318 121.468 90.5733 121.467 90.736C121.467 90.8435 121.419 90.9439 121.408 91.0486C121.379 91.3471 121.645 91.5961 121.921 91.6909C122.196 91.7857 122.497 91.7786 122.775 91.8649C123.31 92.0304 123.693 92.5057 124.147 92.8354C124.613 93.1663 125.162 93.3506 125.728 93.3659C125.809 93.3747 125.89 93.358 125.961 93.3178C126.001 93.2814 126.034 93.2366 126.056 93.1864C126.078 93.1361 126.09 93.0816 126.09 93.0263C126.115 92.7621 126.076 92.4957 125.978 92.2504C125.879 92.0052 125.724 91.7888 125.525 91.6201C125.438 91.5639 125.366 91.4861 125.315 91.3938C125.289 91.3121 125.283 91.2253 125.296 91.1406C125.379 89.981 125.358 88.8161 125.235 87.6604C125.18 87.2941 125.162 86.9228 125.182 86.5527C125.211 86.2443 125.301 85.9387 125.268 85.6317C125.235 85.3247 125.083 85.0446 124.994 84.7489C124.835 84.2227 124.879 83.6568 124.857 83.1065C124.829 82.1501 124.617 81.2108 124.405 80.2771C124.322 79.9107 124.23 79.5273 123.979 79.2557C123.765 79.0251 123.419 78.8044 123.5 78.4974C123.545 78.3842 123.611 78.2817 123.696 78.1961C123.795 78.0675 123.868 77.9194 123.91 77.7608C123.952 77.6022 123.962 77.4365 123.94 77.2737C124.03 77.2974 124.126 77.2881 124.21 77.2473C124.295 77.2066 124.363 77.1369 124.403 77.0502C126.074 76.2367 127.421 74.6098 128.022 72.8061C128.057 72.6721 128.112 72.5443 128.184 72.4269C128.339 72.2034 128.608 72.1072 128.846 71.9841C129.596 71.5951 130.113 70.8665 130.587 70.1535C130.862 69.7404 131.136 69.3132 131.26 68.8265C131.325 68.5118 131.355 68.1905 131.352 67.8688L131.394 66.2065C131.403 66.097 131.393 65.9868 131.364 65.8811C131.323 65.7824 131.264 65.693 131.19 65.618C130.733 65.1204 130.134 64.7872 129.48 64.6673C129.041 64.5867 128.593 64.6022 128.148 64.564C127.286 64.4905 126.436 64.2146 125.574 64.2811C124.22 64.3844 123.014 65.352 122.376 66.5885C122.153 67.0242 121.917 67.4033 121.436 67.4118Z" fill="#464353"/>
<path d="M113.918 56.6035C113.936 56.8601 113.903 57.1179 113.819 57.3604C113.714 57.5924 113.449 57.7735 113.217 57.6787C113.287 57.516 113.102 57.3307 112.929 57.3505C112.844 57.3707 112.765 57.4119 112.698 57.4705C112.632 57.5292 112.581 57.6035 112.549 57.6872C112.434 57.9248 112.396 58.1938 112.439 58.4554C112.494 58.7807 112.676 59.0934 112.628 59.4202C112.59 59.6918 112.396 59.962 112.499 60.2138C112.566 60.3289 112.65 60.4325 112.748 60.5208C112.883 60.693 112.95 60.9122 112.933 61.1333C112.916 61.3544 112.818 61.5605 112.658 61.7092L115.254 61.7629C115.16 62.21 115.354 62.6669 115.577 63.0644C116.199 64.1574 117.059 65.0867 118.088 65.7796C119.117 66.4725 120.288 66.9101 121.509 67.0581C121.443 67.0979 121.386 67.1522 121.343 67.2173C121.3 67.2824 121.272 67.3565 121.26 67.4343C121.248 67.5122 121.253 67.5918 121.274 67.6674C121.296 67.743 121.333 67.8128 121.384 67.8716C121.596 68.088 121.954 68.0612 122.218 67.9211C122.483 67.781 122.69 67.549 122.932 67.3694C123.358 67.0579 123.878 66.9135 124.398 66.9619C124.724 66.9945 125.039 67.1034 125.366 67.1204C126.326 67.1727 127.149 66.4597 128.074 66.1683C128.748 65.9547 129.512 65.9547 130.077 65.5204C130.321 65.3336 130.522 65.0266 130.45 64.7239C130.391 64.5499 130.298 64.3904 130.176 64.2556C129.851 63.8213 129.659 63.2993 129.425 62.8056C128.963 61.8281 128.327 60.9489 127.55 60.2138C126.963 59.6851 126.342 59.1992 125.69 58.7595C125.532 58.6395 125.364 58.5349 125.187 58.4469C124.96 58.3436 124.707 58.2941 124.501 58.1639C124.197 57.9659 124.021 57.6164 123.787 57.3349C123.272 56.7153 122.482 56.4309 121.848 55.9443C121.423 55.6175 121.047 55.1874 120.539 55.0304C120.292 54.9526 120.03 54.9469 119.783 54.8705C119.222 54.6951 118.813 54.1816 118.263 53.9736C117.828 53.8095 117.348 53.8519 116.891 53.7939C116.376 53.7284 115.884 53.5352 115.457 53.2309C115.32 53.1154 115.166 53.0228 115 52.9564C114.305 52.7386 114.249 54.074 114.177 54.5366C114.085 55.2242 113.918 55.9075 113.918 56.6035Z" fill="#6C63FF"/>
<path d="M114.596 61.0824C114.712 62.3868 113.758 63.6501 114.036 64.9276C114.095 65.1992 114.209 65.4581 114.25 65.7339C114.367 66.4908 113.928 67.2081 113.509 67.8418L109.915 73.2813C109.77 73.5201 109.598 73.7397 109.402 73.9349C108.716 74.5645 107.684 74.5008 106.781 74.6876C106.147 74.8219 105.548 75.095 105.025 75.4883C105.001 75.5071 104.986 75.5346 104.982 75.565C104.978 75.5954 104.985 75.6263 105.003 75.651C105.152 75.8602 105.35 76.0277 105.577 76.1382C105.805 76.2486 106.056 76.2985 106.308 76.2833C106.402 76.4107 106.308 76.6002 106.177 76.6922C105.985 76.8337 105.719 76.8662 105.681 77.2043C105.668 77.3218 105.691 77.4405 105.747 77.5438C105.892 77.7718 106.117 77.933 106.375 77.9937C107.619 78.387 108.964 77.6966 109.895 76.7587C110.827 75.8207 111.495 74.6366 112.409 73.6831C112.915 73.154 113.49 72.7027 114.011 72.1906C115.051 71.1678 115.861 69.9271 116.64 68.6836C116.875 68.3087 117.112 67.9239 117.209 67.4896C117.307 67.0553 117.262 66.6153 117.373 66.1951C117.518 65.6448 117.909 65.2048 118.234 64.7436C118.872 63.8382 119.299 62.7305 119.214 61.6143C119.129 60.4981 118.459 59.3975 117.439 59.0184C117.122 58.8886 116.773 58.8668 116.444 58.9561C116.025 59.0891 115.717 59.4456 115.431 59.7879L114.745 60.6C114.578 60.7798 114.447 60.9918 114.36 61.2239C114.316 61.3408 114.305 61.4684 114.329 61.5913C114.354 61.7143 114.412 61.8274 114.497 61.9171" fill="#FBBEBE"/>
<path d="M116.418 55.732C115.946 55.7603 115.426 55.8084 115.092 56.1564C114.953 56.3162 114.84 56.4988 114.758 56.6968C114.434 57.3773 114.118 58.0889 114.095 58.8472C114.076 59.4527 114.246 60.0454 114.335 60.6439C114.409 61.1418 114.221 61.6497 114.186 62.1533C114.771 61.968 115.545 61.7162 116.076 61.4036C116.438 61.1899 116.788 60.9466 117.183 60.8108C117.747 60.617 118.693 60.9523 119.229 61.221C119.258 60.8334 118.975 60.1572 119.005 59.7682C119.01 59.6044 119.038 59.4422 119.089 59.2872C119.169 59.1231 119.264 58.9673 119.373 58.8217C119.577 58.4794 119.671 58.0792 119.641 57.6784C119.612 57.2777 119.459 56.897 119.207 56.5907C118.731 56.039 117.986 55.8325 117.275 55.7419C116.828 55.6884 116.377 55.6723 115.927 55.6938" fill="#6C63FF"/>
<defs>
<linearGradient id="paint0_linear" x1="96.8917" y1="77.268" x2="96.8917" y2="8.13736" gradientUnits="userSpaceOnUse">
<stop stop-color="#808080" stop-opacity="0.25"/>
<stop offset="0.54" stop-color="#808080" stop-opacity="0.12"/>
<stop offset="1" stop-color="#808080" stop-opacity="0.1"/>
</linearGradient>
</defs>
</svg>
