<svg width="40" height="35" viewBox="0 0 40 35" fill="none" xmlns="http://www.w3.org/2000/svg">
<path d="M34.5717 21.8389C34.0241 22.2674 33.003 23.0682 34.5998 21.8191C34.9839 21.517 34.8818 21.5963 34.6401 21.7855C35.5719 21.0494 36.8984 19.5811 37.7543 18.5925C38.2374 18.0344 38.1915 17.1934 37.651 16.6907C36.7028 15.8087 35.2472 14.508 34.253 13.8697C34.512 14.0343 34.6214 14.1033 34.2097 13.8401C32.4986 12.7527 33.593 13.4501 34.1798 13.8232C30.6513 11.5916 25.684 10.4607 21.6559 11.9076C18.0711 13.1952 16.5474 18.6906 16.5474 18.6906C16.5474 18.6906 18.6012 24.0355 22.2945 24.9672C26.4445 26.0141 31.2777 24.4041 34.5717 21.8389Z" fill="#36B240"/>
<path d="M29.6361 14.5776L26.9708 17.5168L21.8815 17.7685L25.3635 13.9285C25.4025 13.8855 25.4349 13.8388 25.4608 13.7897C25.6007 13.5242 25.5496 13.1878 25.317 12.9769C25.0414 12.727 24.6153 12.7478 24.3654 13.0234L19.9774 17.8627L0.876942 17.7456C0.505363 17.764 0.218933 18.0801 0.237382 18.4517C0.255751 18.8233 0.571894 19.1096 0.943525 19.0913L20.0474 19.2082L24.8823 23.5923C25.1579 23.8422 25.5839 23.8214 25.8339 23.5458C25.8729 23.5028 25.9052 23.4561 25.9311 23.407C26.0711 23.1415 26.0199 22.8051 25.7873 22.5942L21.9495 19.1141L27.0332 18.8627L29.9762 21.5314C30.2518 21.7813 30.6779 21.7605 30.9278 21.4849C30.9668 21.4419 30.9992 21.3952 31.0251 21.3461C31.165 21.0806 31.1139 20.7442 30.8813 20.5333L28.9352 18.7687L34.0486 18.5158C34.137 18.5114 34.2236 18.4897 34.3036 18.4519C34.3836 18.4141 34.4553 18.3608 34.5147 18.2953C34.5741 18.2297 34.62 18.1531 34.6497 18.0697C34.6795 17.9864 34.6925 17.8981 34.6881 17.8097C34.6698 17.4381 34.3536 17.1518 33.9821 17.1701L28.8751 17.4227L30.6343 15.4826C30.6733 15.4396 30.7057 15.3929 30.7316 15.3438C30.8715 15.0783 30.8204 14.7419 30.5878 14.531C30.312 14.2811 29.886 14.3019 29.6361 14.5776Z" fill="#66CC47"/>
</svg>
