<svg width="97" height="97" viewBox="0 0 97 97" fill="none" xmlns="http://www.w3.org/2000/svg">
<path d="M37.7355 0.483643L0.390137 21.5304C0.390137 21.5304 0.390137 64.9393 37.7355 88.6169C75.0808 64.9393 75.0808 21.5304 75.0808 21.5304L37.7355 0.483643Z" fill="#3F3D56"/>
<path opacity="0.04" d="M37.9584 0.483643L37.3201 0.843416V88.2063C37.5321 88.3436 37.744 88.4809 37.9584 88.6168C75.3038 64.9393 75.3038 21.5304 75.3038 21.5304L37.9584 0.483643Z" fill="#6C63FF"/>
<g opacity="0.7">
<path opacity="0.7" d="M28.6944 43.1327L35.7346 49.0428L44.462 37.5127L47.9822 40.1992L35.7346 54.4157L25.761 44.2072L28.6944 43.1327Z" fill="url(#paint0_linear)"/>
</g>
<path d="M30.3562 43.4877L36.067 48.2819L44.1575 37.3859L47.013 39.5651L36.067 52.6404L27.9766 44.3594L30.3562 43.4877Z" fill="#3AD29F"/>
<path opacity="0.5" d="M81.6301 32.0915C82.089 32.0915 82.4609 31.7508 82.4609 31.3306C82.4609 30.9104 82.089 30.5698 81.6301 30.5698C81.1713 30.5698 80.7993 30.9104 80.7993 31.3306C80.7993 31.7508 81.1713 32.0915 81.6301 32.0915Z" fill="#F55F44"/>
<path opacity="0.5" d="M95.7539 61.3847C96.2128 61.3847 96.5847 61.044 96.5847 60.6238C96.5847 60.2036 96.2128 59.8629 95.7539 59.8629C95.2951 59.8629 94.9231 60.2036 94.9231 60.6238C94.9231 61.044 95.2951 61.3847 95.7539 61.3847Z" fill="#F55F44"/>
<path opacity="0.5" d="M89.369 88.5164C89.2546 88.4707 89.1624 88.3881 89.1101 88.2843C89.0579 88.1804 89.0491 88.0626 89.0855 87.9532C89.0914 87.9364 89.0951 87.9191 89.0966 87.9015V87.9015C89.0999 87.8514 89.0855 87.8017 89.0556 87.7596C89.0256 87.7176 88.9817 87.6855 88.9302 87.6681C88.8788 87.6507 88.8226 87.649 88.77 87.6631C88.7174 87.6773 88.6712 87.7066 88.6382 87.7467C88.6269 87.7609 88.6174 87.7763 88.61 87.7926C88.5601 87.8974 88.4699 87.9818 88.3565 88.0297C88.2431 88.0775 88.1145 88.0856 87.995 88.0522C87.9767 88.0468 87.9578 88.0434 87.9386 88.0421V88.0421C87.8839 88.039 87.8296 88.0522 87.7836 88.0796C87.7377 88.1071 87.7027 88.1473 87.6837 88.1944C87.6648 88.2415 87.6629 88.293 87.6783 88.3411C87.6938 88.3893 87.7257 88.4316 87.7695 88.4619V88.4619C87.785 88.4723 87.8019 88.4809 87.8196 88.4877C87.9341 88.5334 88.0262 88.616 88.0785 88.7198C88.1308 88.8237 88.1395 88.9415 88.1031 89.0509C88.0972 89.0677 88.0935 89.085 88.0921 89.1026V89.1026C88.0887 89.1527 88.1031 89.2024 88.1331 89.2445C88.163 89.2865 88.207 89.3186 88.2584 89.336C88.3098 89.3534 88.366 89.3551 88.4186 89.341C88.4712 89.3268 88.5174 89.2975 88.5504 89.2574V89.2574C88.5618 89.2432 88.5713 89.2278 88.5787 89.2116C88.6285 89.1067 88.7187 89.0223 88.8321 88.9744C88.9455 88.9266 89.0742 88.9185 89.1936 88.9519C89.2119 88.9573 89.2309 88.9607 89.25 88.962V88.962C89.3048 88.9651 89.3591 88.9519 89.405 88.9245C89.4509 88.897 89.4859 88.8568 89.5049 88.8097C89.5239 88.7626 89.5258 88.7111 89.5103 88.663C89.4949 88.6148 89.4629 88.5725 89.4191 88.5422C89.4036 88.5318 89.3868 88.5232 89.369 88.5164V88.5164Z" fill="#4D8AF0"/>
<path opacity="0.5" d="M96.1692 41.9827C96.628 41.9827 97 41.642 97 41.2218C97 40.8016 96.628 40.461 96.1692 40.461C95.7103 40.461 95.3384 40.8016 95.3384 41.2218C95.3384 41.642 95.7103 41.9827 96.1692 41.9827Z" fill="#47E6B1"/>
<g opacity="0.5">
<path opacity="0.5" d="M60.7213 83.5764H60.3059V85.7322H60.7213V83.5764Z" fill="#47E6B1"/>
<path opacity="0.5" d="M61.6907 84.8445V84.4641H59.3367V84.8445H61.6907Z" fill="#47E6B1"/>
</g>
<g opacity="0.5">
<path opacity="0.5" d="M76.6451 49.3377H76.2297V51.4935H76.6451V49.3377Z" fill="#47E6B1"/>
<path opacity="0.5" d="M77.6145 50.6058V50.2253H75.2605V50.6058H77.6145Z" fill="#47E6B1"/>
</g>
<path d="M62.6972 29.463L59.6196 29.5723L59.7731 33.196L62.8506 33.0867L62.6972 29.463Z" fill="#6C63FF"/>
<path d="M48.8144 42.154C48.8144 42.154 44.5525 40.2892 44.6207 41.8997C44.6889 43.5102 48.9167 44.5698 48.9167 44.5698L48.8144 42.154Z" fill="#FFB9B9"/>
<path d="M51.1526 55.7811C51.1526 55.7811 49.1419 60.2881 48.399 63.5404C47.6561 66.7927 46.5246 71.2685 47.98 74.4427C49.4353 77.617 53.573 86.9461 53.6156 87.9527C53.6583 88.9593 53.2612 89.9815 54.1405 89.9503C55.0198 89.9191 59.8048 88.5394 59.9991 87.9276C60.1933 87.3159 58.3665 85.7678 58.3665 85.7678L53.8556 72.8227L58.5621 64.3892L61.9569 76.9707L62.6218 92.6734C62.6218 92.6734 65.885 91.751 66.3588 92.5407C66.3588 92.5407 67.8209 90.6742 68.0066 89.8611C68.1923 89.048 67.3161 73.5544 67.3161 73.5544C67.3161 73.5544 70.3115 55.9072 67.8934 55.993C65.4753 56.0789 56.004 50.7699 51.1526 55.7811Z" fill="#6C63FF"/>
<path d="M54.1066 89.145C54.1066 89.145 51.8761 93.6598 51.6648 93.8689C51.4535 94.0781 50 96.1459 51.0991 96.1069C52.1982 96.0678 54.7935 94.9676 56.7037 93.2868C58.614 91.606 61.1325 88.6938 60.9042 88.5003C60.6758 88.3068 59.1115 87.7575 59.1115 87.7575L54.1066 89.145Z" fill="#575A89"/>
<path d="M63.0188 91.6511C63.0188 91.6511 62.8842 93.6721 62.4787 94.493C62.0731 95.3138 62.1243 96.5218 63.2234 96.4827C64.3225 96.4437 67.1632 95.9396 67.1632 95.9396C67.1632 95.9396 67.3319 94.7238 67.1035 94.5303C66.8752 94.3368 65.9021 92.1536 66.3162 91.534C66.7303 90.9144 63.0188 91.6511 63.0188 91.6511Z" fill="#575A89"/>
<path d="M64.6449 26.0671C64.6449 26.0671 66.988 29.4114 67.9014 30.1855C68.8148 30.9595 66.2451 32.6637 66.2451 32.6637L61.6459 33.2303C61.6459 33.2303 61.7037 29.3975 61.4669 29.0026C61.23 28.6078 64.6449 26.0671 64.6449 26.0671Z" fill="#FFB9B9"/>
<path d="M60.6474 30.4431C60.6474 30.4431 61.5949 32.0224 62.4742 31.9911C63.3535 31.9599 67.9016 30.1854 68.0959 29.5737C68.2901 28.9619 69.6023 33.9558 69.6023 33.9558L58.4734 51.8919L55.7588 50.1738L57.0741 39.6428L58.1544 33.9591L60.6474 30.4431Z" fill="#6C63FF"/>
<path d="M68.5062 46.4951C68.0623 47.3456 67.785 48.2325 67.8234 49.1404C67.8251 49.1807 67.8268 49.2209 67.8308 49.2611C67.9361 51.1244 68.6856 53.2793 68.9545 54.8464C69.1496 55.9705 69.0941 56.7911 68.3757 56.9839C66.6342 57.449 68.6296 57.7814 61.8918 59.8353C55.1539 61.8891 53.9781 60.1163 53.961 59.7137C53.944 59.311 54.9152 56.2522 54.6869 56.0587C54.4585 55.8652 51.4918 58.5916 50.5954 58.2202C49.6991 57.8488 50.4932 55.8044 50.4932 55.8044C50.4932 55.8044 52.5124 51.4987 52.4698 50.4921C52.4272 49.4856 55.5285 44.7382 55.5285 44.7382L57.6379 32.1629C57.6379 32.1629 58.449 30.5211 59.5396 30.2808C60.6302 30.0404 61.535 30.6131 61.535 30.6131L59.71 34.3071L57.7846 40.8273L58.1067 43.2353C58.1067 43.2353 60.3458 38.9218 61.8163 37.2566C63.2869 35.5914 66.4223 31.6493 66.4223 31.6493C66.4223 31.6493 67.1543 29.3873 66.6017 28.7114C66.0491 28.0334 68.9068 27.9319 70.1253 30.7113C70.7711 32.1844 71.8195 34.3811 72.4763 36.4264C73.0616 38.2383 73.3381 39.9322 72.7583 40.9004C71.872 42.3795 69.6427 44.3236 68.5062 46.4951Z" fill="#575A89"/>
<path opacity="0.1" d="M72.7584 40.9004C71.8722 42.3795 69.6429 44.3236 68.5063 46.4951C68.2095 45.5157 67.8474 44.5023 67.8474 44.5023C67.8474 44.5023 66.4584 37.6966 70.5669 35.9377C71.2476 35.8774 71.9285 36.0517 72.4765 36.4264C73.0618 38.2383 73.3382 39.9322 72.7584 40.9004Z" fill="black"/>
<path d="M56.4486 40.4715L52.9655 41.4017L48.1294 41.5734L47.6318 45.4219L55.5796 45.9461C55.5796 45.9461 57.5648 40.8351 56.4486 40.4715Z" fill="#575A89"/>
<path d="M62.1285 53.4111C62.1285 53.4111 57.4688 54.1191 58.5323 55.4033C59.5959 56.6875 63.7238 55.3374 63.7238 55.3374L62.1285 53.4111Z" fill="#FFB9B9"/>
<path opacity="0.1" d="M67.8307 49.2611C67.9361 51.1244 68.6856 53.2793 68.9545 54.8464C67.4701 56.133 66.0585 57.2678 65.5265 57.2867C64.4274 57.3258 62.6603 57.1869 62.0093 57.4116C61.3584 57.6364 60.9766 53.8192 60.9766 53.8192C60.9766 53.8192 61.3651 52.5957 63.0981 51.9293C64.2678 51.4784 66.5101 50.2556 67.8307 49.2611Z" fill="black"/>
<path d="M70.5157 34.7298C70.5157 34.7298 74.2357 34.1944 74.0347 39.8469C73.8337 45.4994 74.4268 49.1075 72.9307 50.1687C71.4345 51.23 66.5746 56.0398 65.4755 56.0788C64.3764 56.1179 62.6092 55.979 61.9583 56.2037C61.3073 56.4285 60.9255 52.6113 60.9255 52.6113C60.9255 52.6113 61.314 51.3877 63.0471 50.7213C64.7801 50.0549 68.863 47.6921 68.8289 46.8869C68.7948 46.0816 67.7962 43.2944 67.7962 43.2944C67.7962 43.2944 66.4072 36.4886 70.5157 34.7298Z" fill="#575A89"/>
<path d="M61.3647 31.0191C64.0376 31.0191 66.2045 29.0347 66.2045 26.5869C66.2045 24.139 64.0376 22.1546 61.3647 22.1546C58.6918 22.1546 56.5249 24.139 56.5249 26.5869C56.5249 29.0347 58.6918 31.0191 61.3647 31.0191Z" fill="#FFB9B9"/>
<path d="M58.1059 20.234C57.9892 20.3262 57.8494 20.3904 57.699 20.4211C57.6235 20.4334 57.5457 20.4179 57.4827 20.3779C57.4196 20.3379 57.3764 20.2767 57.3625 20.2076C57.2517 20.4179 57.1268 20.642 56.9007 20.7499C56.6746 20.8578 56.3251 20.7674 56.2925 20.5358C56.2595 20.7116 56.1745 20.8758 56.0469 21.0106C55.9066 21.133 55.6522 21.164 55.5298 21.0264C55.6288 21.5219 55.5677 22.0315 55.5988 22.5344C55.6299 23.0373 55.7763 23.5705 56.1912 23.9012C56.7963 24.3835 57.7062 24.2645 58.5021 24.1731C58.6225 24.15 58.7474 24.1562 58.8643 24.1912C59.1623 24.3075 59.1488 24.6875 59.1528 24.9841C59.1771 25.5046 59.4021 26.0004 59.7877 26.3834C60.1733 26.7664 60.6947 27.0119 61.2592 27.0762C61.5752 27.1208 61.8975 27.0488 62.1555 26.8759C62.3815 26.7004 62.4969 26.4145 62.7558 26.2827C63.1771 26.0684 63.6879 26.381 63.9959 26.7204C64.3039 27.0599 64.6074 27.4774 65.0845 27.5395C65.7155 27.6217 66.1961 27.0328 66.4319 26.4905C66.7572 25.7305 66.913 24.9185 66.8903 24.1025C66.8675 23.2864 66.6665 22.4828 66.2992 21.739C64.9817 19.1088 60.481 18.6928 58.1059 20.234Z" fill="#2F2E41"/>
<defs>
<linearGradient id="paint0_linear" x1="25.761" y1="45.9642" x2="47.9822" y2="45.9642" gradientUnits="userSpaceOnUse">
<stop stop-color="#808080" stop-opacity="0.25"/>
<stop offset="0.53514" stop-color="#808080" stop-opacity="0.12"/>
<stop offset="1" stop-color="#808080" stop-opacity="0.1"/>
</linearGradient>
</defs>
</svg>
