<svg width="325" height="236" viewBox="0 0 325 236" fill="none" xmlns="http://www.w3.org/2000/svg">
<path d="M139.286 220.71C200.205 220.71 249.591 171.302 249.591 110.355C249.591 49.4076 200.205 0 139.286 0C78.3661 0 28.9809 49.4076 28.9809 110.355C28.9809 171.302 78.3661 220.71 139.286 220.71Z" fill="#F2F2F2"/>
<path d="M43.7671 236C67.9389 236 87.5341 232.863 87.5341 228.994C87.5341 225.125 67.9389 221.988 43.7671 221.988C19.5952 221.988 0 225.125 0 228.994C0 232.863 19.5952 236 43.7671 236Z" fill="#F2F2F2"/>
<path d="M257.279 228.878C294.68 228.878 325 224.025 325 218.038C325 212.051 294.68 207.198 257.279 207.198C219.878 207.198 189.559 212.051 189.559 218.038C189.559 224.025 219.878 228.878 257.279 228.878Z" fill="#F2F2F2"/>
<path d="M242.233 113.842C242.233 113.842 242.81 115.764 239.542 117.495C236.275 119.225 235.314 125.762 239.158 127.685C243.002 129.608 244.155 132.107 242.233 133.838C240.311 135.568 236.852 140.183 241.464 141.336C246.077 142.49 246.653 144.797 245.308 145.759C243.963 146.72 248.383 144.028 248.383 144.028C248.383 144.028 249.152 148.643 253.187 147.489C257.223 146.335 268.562 124.416 262.797 121.34C257.031 118.264 242.233 113.842 242.233 113.842Z" fill="#2F2E41"/>
<path d="M249.199 132.407C249.199 132.407 251.192 139.388 247.704 139.886C245.539 140.224 243.487 141.079 241.723 142.38L248.202 150.856H260.163L267.639 143.377C267.639 143.377 257.671 135.898 259.665 131.41C261.658 126.923 249.199 132.407 249.199 132.407Z" fill="#FFB9B9"/>
<path opacity="0.1" d="M249.199 132.407C249.199 132.407 251.192 139.388 247.704 139.886C245.539 140.224 243.487 141.079 241.723 142.38L248.202 150.856H260.163L267.639 143.377C267.639 143.377 257.671 135.898 259.665 131.41C261.658 126.923 249.199 132.407 249.199 132.407Z" fill="black"/>
<path d="M252.189 219.165L263.652 223.154L271.626 223.653L271.128 216.672L254.681 211.806L252.189 219.165Z" fill="#FFB9B9"/>
<path d="M266.891 217.669C266.891 217.669 266.891 224.65 267.888 224.65C268.885 224.65 282.341 223.154 286.328 224.65C290.315 226.146 296.296 220.661 293.305 217.669C290.315 214.678 285.438 210.19 282.394 211.187C279.351 212.185 266.891 214.678 266.891 214.678V217.669Z" fill="#575A89"/>
<path d="M230.26 211.188C230.26 211.188 224.28 223.154 228.267 224.151C232.254 225.149 236.739 223.653 237.238 223.154C237.736 222.655 244.713 220.661 245.71 221.658C246.707 222.656 246.707 217.669 246.707 217.669L230.26 211.188Z" fill="#575A89"/>
<path d="M235.244 194.733C235.244 194.733 225.775 207.697 232.752 211.187C239.73 214.678 273.121 214.678 275.613 211.187C278.105 207.697 279.102 196.728 275.613 195.731C272.124 194.733 235.244 194.733 235.244 194.733Z" fill="#2F2E41"/>
<path opacity="0.2" d="M235.244 194.733C235.244 194.733 225.775 207.697 232.752 211.187C239.73 214.678 273.121 214.678 275.613 211.187C278.105 207.697 279.102 196.728 275.613 195.731C272.124 194.733 235.244 194.733 235.244 194.733Z" fill="black"/>
<path d="M253.186 135.898C259.517 135.898 264.649 130.763 264.649 124.43C264.649 118.096 259.517 112.962 253.186 112.962C246.855 112.962 241.723 118.096 241.723 124.43C241.723 130.763 246.855 135.898 253.186 135.898Z" fill="#FFB9B9"/>
<path d="M235.244 142.379L245.212 140.385C245.212 140.385 247.704 148.363 255.678 146.867C263.652 145.371 265.645 140.385 265.645 140.385C265.645 140.385 271.626 142.878 272.124 142.878C272.623 142.878 279.102 145.371 279.102 146.867C279.102 148.363 271.626 163.321 271.626 163.321L272.623 190.246L235.742 189.249L238.234 162.822L235.244 142.379Z" fill="#6C63FF"/>
<path d="M229.762 155.343C229.762 155.343 226.772 181.77 228.765 183.764C230.759 185.758 238.733 191.243 238.733 191.243V185.26L234.746 177.781L238.733 160.329L229.762 155.343Z" fill="#FFB9B9"/>
<path d="M281.344 154.595C281.344 154.595 279.6 181.769 279.6 182.767C279.6 183.764 275.115 187.254 273.619 187.254C272.124 187.254 271.128 184.761 271.128 184.761L274.616 180.772L272.124 160.329L281.344 154.595Z" fill="#FFB9B9"/>
<path d="M276.61 192.739C276.61 192.739 299.037 180.274 299.535 192.739C300.034 205.204 288.072 210.19 288.072 210.19C288.072 210.19 257.173 219.46 255.927 216.072C254.681 212.683 252.189 207.199 254.183 206.7C256.176 206.201 258.668 205.204 259.665 206.201C260.662 207.199 273.121 198.722 273.121 198.722L276.61 192.739Z" fill="#2F2E41"/>
<path opacity="0.2" d="M287.076 191.243C287.076 191.243 282.59 193.238 281.095 194.733C279.6 196.229 273.121 198.722 273.121 198.722" stroke="black" stroke-width="2" stroke-miterlimit="10"/>
<path d="M238.234 143.377L235.244 142.38C235.244 142.38 224.28 153.848 227.768 156.839C231.257 159.831 233.251 160.828 234.247 161.825C235.244 162.822 240.228 163.321 240.228 163.321L238.234 143.377Z" fill="#6C63FF"/>
<path d="M274.616 145.87L279.102 146.867C279.102 146.867 282.59 154.346 283.587 155.343C284.584 156.34 282.092 155.842 280.597 157.836C279.102 159.831 277.607 163.321 274.616 163.321C271.626 163.321 267.639 158.335 267.639 158.335L274.616 145.87Z" fill="#6C63FF"/>
<path d="M236.241 197.226C236.241 197.226 217.302 183.764 210.823 193.736C204.344 203.708 238.733 217.171 243.717 219.165C248.7 221.16 253.186 223.154 253.186 223.154C253.186 223.154 257.671 212.185 257.671 210.19C257.671 208.196 254.183 208.196 253.186 208.196C252.189 208.196 247.704 207.199 246.707 205.703C245.71 204.207 236.241 197.226 236.241 197.226Z" fill="#2F2E41"/>
<path opacity="0.2" d="M225.775 193.736C225.775 193.736 230.759 197.725 235.244 198.722C239.729 199.719 241.225 202.212 241.225 202.212" stroke="black" stroke-width="2" stroke-miterlimit="10"/>
<path d="M232.803 174.989L233.201 196.1C233.214 196.797 233.502 197.461 234.003 197.947C234.503 198.432 235.175 198.701 235.872 198.693L275.141 198.251C275.81 198.244 276.451 197.983 276.935 197.52C277.419 197.058 277.71 196.429 277.748 195.761L278.94 175.091C278.961 174.732 278.908 174.372 278.785 174.034C278.662 173.696 278.471 173.386 278.224 173.125C277.977 172.863 277.679 172.655 277.349 172.512C277.019 172.37 276.663 172.296 276.303 172.296H235.444C235.093 172.296 234.745 172.366 234.422 172.502C234.098 172.638 233.805 172.837 233.559 173.088C233.313 173.339 233.119 173.636 232.989 173.962C232.86 174.289 232.796 174.638 232.803 174.989V174.989Z" fill="#575A89"/>
<path d="M253.798 110.024C253.798 110.024 254.437 112.154 250.818 114.071C247.198 115.988 246.134 123.229 250.392 125.359C254.65 127.489 255.927 130.258 253.798 132.175C251.669 134.092 247.837 139.204 252.947 140.482C258.056 141.76 258.695 144.316 257.205 145.381C255.714 146.446 260.611 143.464 260.611 143.464C260.611 143.464 261.463 148.576 265.934 147.298C270.405 146.02 274.865 122.789 269.882 116.806C265.248 111.243 253.798 110.024 253.798 110.024Z" fill="#2F2E41"/>
<path d="M252.438 107.831C252.439 104.711 261.771 106.953 265.772 111.31C268.542 114.327 272.75 118.866 269.224 122.066C265.698 125.265 275.269 129.46 277.835 130.732C280.402 132.003 285.47 135.892 280.894 138.501C276.318 141.11 276.392 143.744 278.114 144.367C279.836 144.991 274.317 143.44 274.317 143.44C274.317 143.44 274.875 148.592 270.225 148.568C265.575 148.543 252.235 122.978 255.422 115.872C258.385 109.264 252.438 107.831 252.438 107.831Z" fill="#2F2E41"/>
<path d="M254.46 107.147C241.981 106.396 240.728 115.793 240.728 115.793C240.814 121.232 249.447 118.582 251.845 119.392C254.737 117.311 260.313 113.372 264.3 110.561C261.405 108.521 257.995 107.338 254.46 107.147Z" fill="#2F2E41"/>
<path d="M250.904 167.115C250.904 167.115 239.711 114.63 169.647 76.5563" stroke="#3F3D56" stroke-width="2" stroke-miterlimit="10"/>
<path d="M172.534 75.4115L172.674 75.9869L169.84 76.6745L170.733 79.4523L170.17 79.6331L169.083 76.2497L172.534 75.4115Z" fill="#3F3D56"/>
<path d="M20.2492 220.743C20.2492 227.39 16.2993 229.712 11.4266 229.712C11.3137 229.712 11.201 229.71 11.0885 229.708C10.8627 229.703 10.6391 229.692 10.4182 229.677C6.02058 229.366 2.604 226.925 2.604 220.743C2.604 214.345 10.7762 206.272 11.39 205.674L11.3911 205.673C11.4148 205.65 11.4266 205.639 11.4266 205.639C11.4266 205.639 20.2492 214.095 20.2492 220.743Z" fill="#6C63FF"/>
<path d="M11.1051 228.695L14.3319 224.184L11.097 229.19L11.0884 229.708C10.8627 229.703 10.639 229.692 10.4181 229.677L10.7659 223.026L10.7632 222.975L10.7691 222.965L10.8019 222.337L7.55896 217.318L10.8121 221.866L10.8197 221.999L11.0825 216.974L8.30614 211.788L11.1164 216.092L11.39 205.674L11.3911 205.639V205.673L11.3454 213.888L14.1094 210.632L11.3341 214.596L11.261 219.095L13.8417 214.777L11.2502 219.757L11.2094 222.258L14.956 216.249L11.1954 223.131L11.1051 228.695Z" fill="#3F3D56"/>
<path d="M62.3305 219.021L64.2178 217.618C64.2178 217.618 65.467 224.599 64.073 225.645C62.679 226.691 57.4516 228.435 57.4516 230.526C57.4516 232.618 45.6026 235.408 45.2541 232.27C44.9056 229.132 46.2996 227.389 46.2996 227.389C46.2996 227.389 51.8756 221.81 52.5726 220.764C53.2696 219.718 55.0121 217.626 55.0121 217.626L62.3305 219.021Z" fill="#2F2E41"/>
<path d="M34.4507 132.205C34.4507 132.205 34.503 132.512 34.5935 133.073C34.6772 133.572 34.7922 134.276 34.9316 135.144C36.3953 144.08 40.6644 170.387 40.3752 171.255C40.0267 172.301 37.5872 176.136 40.3752 177.182C40.6435 177.283 40.9327 177.611 41.2429 178.127C41.8416 179.238 42.3351 180.403 42.7171 181.606C44.3794 186.432 46.1568 194.155 47.1848 199.503C47.6344 201.853 47.941 203.743 48.0317 204.733C48.0632 204.962 48.0667 205.194 48.0421 205.423C47.6936 206.818 50.1331 211.699 51.1786 213.094C52.2241 214.488 53.9666 215.883 53.6181 217.278C53.2696 218.672 62.3306 222.507 63.3761 220.067C64.4215 217.626 64.4215 216.232 64.77 215.534C65.1185 214.837 65.467 209.956 63.7246 209.258C61.9821 208.561 63.0276 196.358 61.2851 193.918C60.7031 193.105 59.8144 190.354 58.8839 187.045C58.518 185.748 58.1486 184.368 57.7861 182.984C56.3155 177.311 55.0121 171.603 55.0121 171.603L55.3606 130.811L36.1932 128.37L35.7018 129.454L34.7225 131.606L34.4507 132.205Z" fill="#2F2E41"/>
<path d="M33.4052 199.147C33.4052 199.147 30.6173 196.358 29.2233 199.147C27.8293 201.937 26.4353 212.745 23.9958 215.185C21.5563 217.626 18.4198 229.829 21.9048 230.526C25.3898 231.224 29.2233 229.48 29.5718 227.388C29.9203 225.297 37.2387 214.488 37.2387 213.442C37.2387 212.396 32.3597 208.561 32.3597 208.561L33.4052 199.147Z" fill="#2F2E41"/>
<path d="M76.2705 113.029C76.2705 113.029 71.74 153.822 70.6945 157.657C69.649 161.492 64.0731 176.136 62.3306 178.577C60.5881 181.017 49.4361 200.891 48.0421 201.937C46.6481 202.983 43.8602 205.772 43.8602 205.772C43.8602 205.772 38.6327 211.002 37.9357 212.048C37.2387 213.094 31.3142 209.956 30.9657 207.864C30.6172 205.772 31.3142 202.285 31.6627 200.891C32.0112 199.496 30.9657 197.404 32.0112 196.358C33.0567 195.312 38.2842 190.082 38.2842 187.642C38.2842 185.201 47.3451 170.906 50.8301 167.768C54.3151 164.63 53.6181 159.4 53.6181 159.4V138.132L34.4507 132.205C34.4507 132.205 35.4962 115.47 37.9357 115.47C40.3752 115.47 72.437 109.891 76.2705 113.029Z" fill="#2F2E41"/>
<path d="M48.0421 54.8034C54.3937 54.8034 59.5426 49.6521 59.5426 43.2977C59.5426 36.9433 54.3937 31.792 48.0421 31.792C41.6906 31.792 36.5417 36.9433 36.5417 43.2977C36.5417 49.6521 41.6906 54.8034 48.0421 54.8034Z" fill="#9F616A"/>
<path d="M51.8756 52.3627C51.8756 52.3627 53.2696 57.5925 55.0121 58.9872C56.7546 60.3818 50.4816 66.309 50.4816 66.309L38.6327 67.0063L36.5417 60.3818C36.5417 60.3818 40.3752 52.7113 39.3297 47.8301C38.2842 42.9489 51.8756 52.3627 51.8756 52.3627Z" fill="#9F616A"/>
<path d="M56.7546 58.2899C56.7546 58.2899 53.6181 58.6386 52.9211 59.6845C52.2241 60.7305 47.3451 63.8684 43.5116 63.1711C39.6782 62.4738 37.2387 61.4278 36.5417 61.7765C35.8447 62.1251 34.4507 69.4469 34.4507 69.4469L38.2842 80.604L37.5872 111.286L36.5417 119.654C36.5417 119.654 34.4507 116.864 42.8146 118.608C51.1786 120.351 61.9821 117.213 65.4671 116.864C68.9521 116.516 74.8765 115.47 75.225 113.378C75.5735 111.286 74.1795 103.615 74.1795 103.615L68.6035 80.2553L65.1186 67.7037L56.7546 58.2899Z" fill="#6C63FF"/>
<path d="M53.4582 56.7163C53.4582 56.7163 56.4061 55.152 57.4516 56.5466C58.4971 57.9412 71.74 60.0332 71.74 61.0792C71.74 62.1251 74.528 90.3663 73.831 92.807C73.134 95.2476 75.225 98.0368 75.225 98.0368L77.6645 108.497C77.6645 108.497 84.286 128.37 81.498 129.067C78.71 129.765 76.2705 129.067 75.225 129.067C74.1795 129.067 74.528 115.818 71.74 112.332C68.952 108.845 65.1186 100.129 64.4216 98.3855C63.7246 96.6422 55.0121 72.5848 55.3606 69.7956C55.7091 67.0063 53.4582 56.7163 53.4582 56.7163Z" fill="#D0CDE1"/>
<path d="M38.9812 58.2899C38.9812 58.2899 36.1932 58.2899 35.8447 58.9872C35.4962 59.6846 32.0112 64.2171 30.6172 65.2631C29.2232 66.309 24.3442 70.8416 24.3442 71.8875C24.3442 72.9335 34.4507 80.604 34.4507 80.604C34.4507 80.604 38.6327 101.175 36.5417 108.148C34.4507 115.121 31.3142 131.857 32.7082 132.903C34.1022 133.948 37.2387 134.297 37.2387 132.903C37.2387 131.508 39.3297 116.516 41.0722 113.378C42.8147 110.24 48.0421 90.3664 45.9511 84.7878C43.8601 79.2093 38.9812 58.2899 38.9812 58.2899Z" fill="#D0CDE1"/>
<path d="M84.983 92.8069C84.983 92.8069 85.3315 103.615 81.498 109.194C77.6645 114.772 75.2251 121.048 75.2251 121.048C75.2251 121.048 68.9521 119.305 67.9066 117.213C66.8611 115.121 60.2396 116.864 60.2396 116.167C60.2396 115.47 68.2551 111.983 68.9521 111.286C69.6491 110.588 72.0886 110.588 73.4826 109.194C74.8766 107.799 75.2251 104.661 75.2251 104.661L76.619 95.5961L84.983 92.8069Z" fill="#9F616A"/>
<path d="M55.963 36.2035C56.8478 36.1231 57.7603 36.0346 58.5422 35.6127C60.2942 34.6674 60.7588 31.9755 59.4251 30.4971C59.0573 30.121 58.646 29.7901 58.1999 29.5115L55.5508 27.7076C54.3792 26.9098 53.1799 26.0989 51.8134 25.7228C50.5774 25.3826 49.2721 25.4175 47.9927 25.4971C45.509 25.6515 43.0099 25.9706 40.6739 26.8285C38.3379 27.6864 36.1587 29.1216 34.7439 31.1697C32.501 34.4165 32.4702 38.7954 33.7055 42.5436C34.9408 46.2919 37.2874 49.5559 39.5996 52.7537L40.7993 46.8973C40.9062 46.3756 41.0444 45.8039 41.478 45.4952C42.5558 44.7279 43.8742 46.3033 45.1969 46.2931C46.0468 46.2866 46.7604 45.5872 47.0825 44.8002C47.4046 44.0133 47.4258 43.1419 47.5004 42.2948C47.6582 40.5007 48.285 38.0043 49.9833 37.0148C51.5658 36.0928 54.1842 36.3651 55.963 36.2035Z" fill="#2F2E41"/>
<path opacity="0.1" d="M55.3179 132.487C55.3179 132.487 54.1409 166.548 53.4439 167.594C52.7469 168.64 53.4439 132.38 53.4439 132.38L55.3179 132.487Z" fill="black"/>
<path d="M68.952 61.0791H71.74C71.74 61.0791 83.589 77.1173 82.195 78.1633C80.801 79.2093 82.195 81.9985 82.195 81.9985L84.983 87.2284C84.983 87.2284 88.4679 90.3663 87.4224 91.0636C86.3769 91.7609 84.983 94.5502 84.983 94.5502C84.983 94.5502 78.013 93.5042 75.922 97.6881L71.402 91.9793L68.952 61.0791Z" fill="#D0CDE1"/>
<path d="M69.9374 66.2379L60.3707 70.1902L67.7326 88.0262L77.2994 84.0739L69.9374 66.2379Z" fill="#2F2E41"/>
<path d="M68.8162 76.6987C69.8729 76.2621 70.4046 75.1209 70.0037 74.1497C69.6028 73.1785 68.4212 72.7451 67.3645 73.1817C66.3078 73.6183 65.7761 74.7595 66.177 75.7307C66.5779 76.7018 67.7595 77.1352 68.8162 76.6987Z" fill="#6C63FF"/>
<path d="M61.9821 88.9717C61.9821 88.9717 36.8902 109.891 32.7082 103.267C28.5262 96.6422 37.2387 91.0637 37.2387 91.0637C37.2387 91.0637 44.9056 91.4123 53.6181 85.8338L62.3306 81.9986C62.3306 81.9986 70.2843 70.638 72.9948 74.964C75.7052 79.29 68.3681 86.8191 61.9821 88.9717Z" fill="#9F616A"/>
<path d="M28.1777 70.4929L24.3443 71.8875V82.3473L22.9503 84.4392C22.9503 84.4392 23.2988 88.6231 24.3443 89.6691C25.3897 90.715 27.4807 90.3664 26.7837 92.807C26.3648 94.3981 26.2466 96.0536 26.4352 97.6882C26.4352 97.6882 32.7082 105.707 33.0567 104.661C33.4052 103.615 38.2842 90.715 38.9812 90.715C39.6782 90.715 32.0112 70.4929 32.0112 70.4929H28.1777Z" fill="#D0CDE1"/>
<path d="M74.0053 123.314C74.0053 123.314 77.6087 119.828 75.807 119.654C74.0053 119.479 67.7323 115.993 66.6868 117.736C65.6413 119.479 74.0053 123.314 74.0053 123.314Z" fill="#2F2E41"/>
<path d="M142.539 56.8048C145.315 56.8048 147.566 55.6127 147.566 54.1421C147.566 52.6715 145.315 51.4794 142.539 51.4794C139.762 51.4794 137.511 52.6715 137.511 54.1421C137.511 55.6127 139.762 56.8048 142.539 56.8048Z" fill="#57B894"/>
<path d="M161.761 63.0178C150.425 58.7345 139.089 58.7345 127.753 63.0178V49.1125C138.842 45.7648 150.672 45.7648 161.761 49.1125V63.0178Z" stroke="#3F3D56" stroke-width="2" stroke-miterlimit="10"/>
<path d="M157.029 60.1421C148.847 57.0506 140.666 57.0506 132.484 60.1421V50.1061C140.488 47.6899 149.026 47.6899 157.029 50.1061V60.1421Z" stroke="#3F3D56" stroke-width="2" stroke-miterlimit="10"/>
<path d="M144.313 55.6213C147.09 55.6213 149.34 54.4292 149.34 52.9586C149.34 51.488 147.09 50.2959 144.313 50.2959C141.537 50.2959 139.286 51.488 139.286 52.9586C139.286 54.4292 141.537 55.6213 144.313 55.6213Z" stroke="#3F3D56" stroke-width="2" stroke-miterlimit="10"/>
<path d="M146.235 73.4804C148.956 72.9249 150.923 71.3065 150.629 69.8657C150.335 68.4248 147.891 67.707 145.171 68.2625C142.45 68.818 140.483 70.4364 140.777 71.8772C141.071 73.3181 143.515 74.0359 146.235 73.4804Z" fill="#57B894"/>
<path d="M166.311 75.7223C154.348 73.7934 143.241 76.0614 132.99 82.5262L130.21 68.9017C140.406 63.4031 151.997 61.0363 163.531 62.0979L166.311 75.7223Z" stroke="#3F3D56" stroke-width="2" stroke-miterlimit="10"/>
<path d="M161.1 73.8513C152.466 72.4591 144.449 74.096 137.051 78.7619L135.045 68.9286C142.404 64.96 150.769 63.2518 159.094 64.018L161.1 73.8513Z" stroke="#3F3D56" stroke-width="2" stroke-miterlimit="10"/>
<path d="M147.737 71.9659C150.458 71.4104 152.425 69.792 152.131 68.3511C151.837 66.9103 149.393 66.1925 146.673 66.748C143.952 67.3035 141.985 68.9218 142.279 70.3627C142.573 71.8036 145.017 72.5214 147.737 71.9659Z" stroke="#3F3D56" stroke-width="2" stroke-miterlimit="10"/>
<path d="M149.676 87.7708C149.778 86.3037 147.615 84.9581 144.845 84.7653C142.075 84.5725 139.747 85.6054 139.645 87.0725C139.543 88.5395 141.706 89.8851 144.476 90.0779C147.245 90.2707 149.574 89.2378 149.676 87.7708Z" fill="#57B894"/>
<path d="M163.22 97.6109C152.209 92.5506 140.9 91.7633 129.294 95.249L130.259 81.3772C141.554 78.8077 153.355 79.6293 164.185 83.7391L163.22 97.6109Z" stroke="#3F3D56" stroke-width="2" stroke-miterlimit="10"/>
<path d="M158.7 94.4136C150.752 90.7614 142.59 90.1932 134.214 92.709L134.91 82.6971C143.062 80.8426 151.579 81.4356 159.396 84.4018L158.7 94.4136Z" stroke="#3F3D56" stroke-width="2" stroke-miterlimit="10"/>
<path d="M151.528 86.7134C151.63 85.2463 149.467 83.9008 146.697 83.7079C143.928 83.5151 141.599 84.548 141.497 86.0151C141.395 87.4821 143.558 88.8277 146.328 89.0205C149.098 89.2134 151.426 88.1804 151.528 86.7134Z" stroke="#3F3D56" stroke-width="2" stroke-miterlimit="10"/>
<path d="M122.702 63.3406C122.702 63.3406 100.968 60.3659 85.4463 69.466" stroke="#3F3D56" stroke-width="2" stroke-miterlimit="10"/>
<path d="M85.9692 66.408L86.5337 66.5867L85.6513 69.3674L88.4884 70.0446L88.3503 70.6207L84.8954 69.7949L85.9692 66.408Z" fill="#3F3D56"/>
</svg>
